<?xml version="1.0" standalone="no"?>
<!DOCTYPE svg PUBLIC "-//W3C//DTD SVG 20010904//EN"
 "http://www.w3.org/TR/2001/REC-SVG-20010904/DTD/svg10.dtd">
<svg version="1.0" xmlns="http://www.w3.org/2000/svg"
 width="260.000000pt" height="260.000000pt" viewBox="0 0 260.000000 260.000000"
 preserveAspectRatio="xMidYMid meet">
<metadata>
Created by potrace 1.11, written by Peter Selinger 2001-2013
</metadata>
<g transform="translate(0.000000,260.000000) scale(0.100000,-0.100000)"
fill="#000000" stroke="none">
<path d="M0 1300 l0 -1300 1300 0 1300 0 0 1300 0 1300 -1300 0 -1300 0 0
-1300z m1906 503 c46 -5 52 -8 63 -38 13 -38 6 -109 -15 -142 -39 -62 -131 9
-154 117 -14 68 -6 86 35 74 11 -3 43 -8 71 -11z m292 -23 c26 -16 32 -26 32
-54 0 -32 -20 -66 -40 -66 -41 0 -130 69 -130 101 0 41 83 52 138 19z m-1162
-8 c15 -10 31 -260 50 -795 l4 -118 -37 -35 c-47 -43 -68 -49 -124 -34 -93 25
-194 100 -241 179 -11 20 -36 59 -54 86 -18 28 -56 105 -85 170 -60 135 -57
130 -64 123 -3 -3 1 -43 9 -89 39 -220 47 -286 38 -310 -11 -27 -37 -53 -66
-63 -26 -9 -90 13 -128 44 l-33 28 0 343 0 344 24 28 c14 15 29 27 34 27 5 0
22 10 39 21 37 27 76 22 141 -17 54 -33 78 -73 136 -228 23 -60 45 -114 50
-120 4 -6 23 -45 42 -86 34 -75 109 -214 114 -208 5 7 -14 525 -20 548 -4 14
-11 35 -17 47 -20 41 11 72 106 105 57 20 66 21 82 10z m560 -158 c54 -11 61
-47 68 -339 7 -286 2 -333 -48 -398 -41 -53 -69 -61 -207 -54 -146 7 -168 18
-209 101 -17 33 -30 68 -30 78 0 10 -4 26 -10 36 -24 44 -35 424 -15 505 6 23
12 27 45 27 87 0 103 -44 120 -325 12 -195 16 -225 35 -240 6 -5 20 -25 29
-44 10 -18 21 -29 26 -25 18 19 33 170 39 394 3 129 10 241 15 248 20 31 85
48 142 36z m309 -64 c23 -9 25 -14 26 -82 1 -157 10 -374 15 -388 3 -8 8 -44
11 -80 3 -36 9 -83 15 -105 16 -65 15 -78 -6 -81 -11 -1 -25 0 -30 4 -13 8
-18 9 -82 10 -77 3 -92 20 -98 115 -6 89 10 562 20 603 6 25 9 26 56 20 27 -4
60 -11 73 -16z m332 2 c25 -16 43 -84 53 -194 13 -150 8 -492 -8 -511 -7 -8
-9 -23 -5 -32 5 -14 3 -17 -10 -12 -9 3 -19 2 -22 -4 -4 -5 -12 -6 -18 -2 -7
4 -20 6 -29 5 -27 -5 -78 30 -85 57 -7 30 3 296 18 449 6 63 9 142 7 177 l-4
64 31 4 c54 7 60 7 72 -1z"/>
</g>
</svg>
