<svg fill="none" height="102" viewBox="0 0 74 102" width="74" xmlns="http://www.w3.org/2000/svg"><g fill="#ffdda5"><path d="m10.2547 1.97935c.2665.00131.5103.06701.7316.19712.2206.11743.4237.26734.6091.44972l.2376.2182.1601.18346.0396.03636.0206.03718.0801.09173c.0269.03691.0605.07988.1006.12891.0396.03636.0734.08566.1015.1479.0269.0369.0547.09281.0833.1677l.0214.05618.0214.05617c.0143.03745.0286.0749.0429.11234.0142.03745.0285.0749.0428.11235l.0659.20651.0667.2255.0469.20732c.0286.07489.0509.15006.0668.2255.0153.06277.031.13188.0469.20732l.0445.15033c-.0011-.02533-.0011-.02533 0 0 .0132.01212.02.02451.0206.03718.0407.06169.0434.12501.0081.18994.0011.02533-.0045.04459-.0166.0578-.0242.02641-.0427.03988-.0553.04042-.0127.00054-.0314.00768-.0562.02143l-.1115.06185-.1678.08328-.1115.06185-.1487.08246-.1685.06429c-.0496.02748-.0992.05497-.1487.08246-.0501.01483-.1005.02332-.1512.02549-.0126.00054-.0322-.01132-.0586-.03556l-.0594-.05455-.0214-.05617-.0825-.14871-.0206-.03718-.0239-.11316c-.0021-.05065-.0104-.0947-.0246-.13215-.0149-.05011-.0234-.10049-.0255-.15115-.0022-.05065-.0104-.0947-.0247-.13215-.0148-.05011-.0296-.10022-.0445-.15033-.0148-.05011-.0294-.09389-.0436-.13134-.0022-.05065-.0046-.10764-.0073-.17095-.0027-.06332-.0189-.14509-.0486-.24531-.0148-.05011-.023-.09416-.0246-.13215-.0022-.05065-.0168-.09443-.0437-.13134-.1094-.18562-.2359-.32611-.3796-.42146l-.274-.17859c-.0264-.02425-.0591-.04822-.0982-.07193-.0264-.02424-.0589-.04189-.0974-.05293-.0897-.02154-.1853-.03014-.2866-.02582-.0886.00379-.18331.01417-.28407.03116l-.01899.00081c-.0617.0407-.11019.09351-.14547.15845l-.10748.15682c-.01212.0132-.03058.02668-.05536.04042-.01212.01321-.01792.02614-.01738.0388.00109.02533-.0105.0512-.03474.0776l-.01818.01981c-.02425.02641-.04714.08447-.06868.17419l-.02745.24856c-.021.10238-.02906.21056-.0242.32453.01699.10076.02765.20179.03197.3031.00433.1013.00893.20894.01379.3229.00433.10131.01498.20234.03197.30311.01699.10076.03425.20785.05178.32128.01699.10076.04031.20126.06996.30148.07521.27588.16309.55123.26362.82603.1.26214.23771.51632.41311.76255l.2426.33217.1847.31561c.1237.22307.2722.43239.4455.62797.1061.10964.206.21956.2995.32974s.1812.2333.2631.36935l.0611.09254c.039.0237.0855.07246.1394.14625.0803.0981.1416.197.184.2966.056.1245.1057.2492.1491.3743.0556.1118.1174.2233.1856.3346.0692.1365.1258.2737.1698.4113.0566.1372.1132.2743.1698.4114l.131.3941c.0286.0749.0442.144.0469.2073.0566.1371.0945.2814.1136.4328.0192.1514.0447.3026.0765.4534.0312.1382.0438.2836.0376.4361.006.1393.0119.2786.0179.4179.0059.1393-.0264.2739-.097.4037-.0711.1172-.1422.2345-.2133.3517-.1544.2476-.3299.4454-.5265.5933l-.1843.1411c-.0738.0539-.1358.0882-.1859.1031-.0248.0137-.0559.0277-.0933.042-.0248.0138-.0496.0275-.0744.0413-.076.0032-.1327.012-.1701.0262l-.057.0025-.0182.0198-.1503.0445-.0752.0222c-.0501.0148-.0941.0231-.1321.0247-.0375.0143-.0752.0222-.1132.0238-.0754.0159-.1511.0255-.2271.0288-.076.0032-.1456.0062-.209.0089l-.3609.0154-.0371.0206c-.0633.0027-.15886-.0059-.28657-.0258-.10293-.0337-.20586-.0673-.30878-.101-.10293-.0337-.20007-.0803-.29141-.1398-.10401-.059-.20802-.118-.31202-.177-.09135-.0595-.17084-.1386-.23848-.2372-.0671-.0859-.12814-.1784-.18312-.2776-.04285-.1123-.07911-.2186-.10876-.3188-.04286-.1124-.08571-.2247-.12857-.3371-.04285-.1123-.07332-.2315-.09139-.3576-.01752-.1134-.02872-.2271-.03359-.3411s-.02239-.2274-.05259-.3403c-.01536-.0628-.02413-.1195-.02629-.1701-.00216-.0507-.01093-.1074-.0263-.1702l-.07158-.3394c-.01699-.1008-.02131-.2021-.01298-.3039.02046-.1151.01587-.2227-.01378-.323l-.00244-.0569c-.00054-.0127-.00714-.0188-.0198-.0182-.00054-.0127-.00108-.0253-.00162-.038l.01493-.0958c-.00378-.0886.01938-.1404.06949-.1552.02425-.0264.04297-.0335.05618-.0214.02586.0116.05173.0231.0776.0347.06385.01.1591.0123.28573.0068.08864-.0037.17095-.0073.24693-.0105.08864-.0038.17755-.0012.26673.0076l.19157.0299c.03853.0111.07046.016.09578.015.03799-.0017.07652.0094.11559.0331l.05942.0545c.03907.0237.05969.0609.06185.1116.00378.0886.00124.1775-.00764.2667.00324.076.01309.158.02954.2461s.02656.1765.03035.2651c.00324.076.01309.1581.02954.2462.03235.1635.05837.3273.07807.4914.03181.1509.0639.3081.09625.4716.03073.1255.0612.2448.09139.3577.04232.0996.10362.1985.18397.2966.0264.0242.0588.0419.0974.0529.038-.0016.0699.0034.0957.0149.0766.0095.1531.0189.2296.0283s.1591.0122.2477.0084c.152-.0064.3147-.0578.4882-.154l.0934-.0421.0182-.0198c.0606-.066.1198-.1637.1777-.293l.0513-.1354.0182-.0198-.0016-.038c-.0022-.0506-.004-.095-.0057-.1329.0111-.0386.0155-.0832.0133-.1338-.0173-.4052-.072-.7962-.1642-1.1728-.0297-.1002-.0651-.1875-.1063-.2619-.0418-.087-.0775-.1806-.1072-.2808-.0143-.0375-.0283-.0686-.042-.0934-.0143-.0374-.0286-.0749-.0429-.1123l-.042-.0934-.0619-.1115c-.0681-.1113-.1427-.2223-.2235-.333-.0682-.1113-.1424-.2159-.2227-.314-.0407-.0617-.0812-.117-.1213-.1661-.0407-.0617-.0751-.1236-.1031-.1859-.028-.0622-.0621-.1178-.1023-.1669-.0401-.049-.0742-.1046-.1022-.1669l-.0833-.1677-.06024-.0735-.16006-.18346-.14189-.20327c-.06656-.07327-.13285-.14021-.19886-.20083-.0539-.07381-.11413-.14736-.18069-.22063-.10725-.13497-.20844-.27654-.30357-.42471-.08301-.16138-.16575-.31642-.24821-.46513-.04178-.08702-.08328-.16771-.12451-.24206-.04178-.08702-.07722-.17431-.10633-.26187l-.02224-.07517c-.1474-.184-.2513-.38888-.31168-.61465-.03128-.13822-.06228-.2701-.09301-.39565-.01807-.12608-.04275-.25824-.07402-.39645-.04448-.15033-.08262-.30094-.11444-.45181-.03181-.15088-.0573-.30202-.07645-.45344-.01915-.15141-.03197-.3031-.03846-.45506.00618-.15249.01868-.30526.03752-.4583s.04428-.30001.07632-.44093c.0315-.15358.063-.30716.0945-.46073.02262-.0644.03891-.12853.04887-.19238.02263-.0644.04525-.1288.06787-.19319l.05212-.1164.12079-.2906c.02371-.03907.04108-.07787.05212-.1164s.04135-.07154.09092-.09903c.02316-.05173.04714-.08447.07192-.09822l.07355-.06022.12809-.11965.33217-.24253c.06169-.04069.11733-.07479.1669-.10227.06169-.0407.13025-.069.20569-.0849l.22794-.00974.03799-.00162c.06223-.02803.11867-.04313.16933-.04529.06331-.0027.12663-.00541.18995-.00811z"/><path d="m17.7308 1.54595c.1013-.00433.1775-.00124.2287.00926.0765.00942.1467.01911.2106.02907.0765.00942.1469.02544.2113.04806l.4046.11593.1734.04969c.0258.01158.0517.02316.0776.03474.0253-.00108.0512.0105.0776.03475.0919.07219.1854.18237.2805.33054.0539.07382.1017.15423.1435.24125.0412.07436.0827.15505.1245.24207.0555.1118.0984.22415.1286.33703.0275.04957.055.09914.0825.14871.0269.03691.0541.08015.0816.12972.0291.08756.0519.17539.0683.26349.0165.0881.0329.1762.0494.2643l.0987.52861c.0159.07544.0255.15114.0287.22712.0159.07544.0258.15748.0295.24612l.028.20813c.0016.03799-.0031.07625-.0142.11478.0017.03799.0033.07597.0049.11396.0038.08865-.0312.15991-.105.21381-.0612.05336-.1292.09432-.2041.12289-.0876.02911-.1688.05795-.2437.08652s-.1569.03842-.2461.02954c-.038.00162-.0955-.00861-.1726-.03069-.0628.01537-.1575.02575-.2841.03116l-.133.00568-.0569.00243-.019.00081c-.0254.00108-.0636-.00363-.1148-.01413-.0385-.01104-.065-.03528-.0792-.07273-.0154-.06277-.0118-.12636.0108-.19076.0353-.06493.058-.12933.0679-.19319l.0085-.24774-.0081-.18994-.009-.20894-.0477-.22631-.0708-.32048c-.0264-.02424-.0401-.04903-.0412-.07435-.0143-.03745-.0288-.08123-.0437-.13134-.0148-.05012-.0357-.09363-.0626-.13053l-.1617-.22145c-.0935-.11018-.1857-.18871-.2765-.23557-.0517-.02317-.1032-.04-.1544-.0505-.0385-.01104-.09-.02787-.1544-.05049-.0512-.0105-.1211-.01386-.2097-.01008-.0628.01537-.1564.05108-.2809.10714l-.0561.02143c-.0375.01429-.0678.04729-.091.09903l-.0355.0586c-.0237.03907-.0408.08421-.0513.1354.0021.05065-.002.10157-.0125.15277l-.0242.32453c.0027.06331-.0007.13323-.0101.20975-.01.06385-.0199.12771-.0299.19157l-.044.30634.0024.05699c.0027.06331-.0009.1269-.0108.19075-.01.06386-.02.12771-.0299.19157-.01.06386-.0133.13377-.0101.20975.0027.06332.0054.12663.0081.18995.0027.06331-.0006.13323-.0101.20975.0027.06331.0054.12663.0082.18994-.0095.07652-.0126.15277-.0093.22875.0032.07598.0065.15196.0097.22793l-.0117.17177.0146.3419c.0033.07598.0002.15222-.0092.22874.0032.07598.0001.15223-.0093.22875-.01.06386-.0133.13377-.0101.20975.0027.06332.0054.12663.0081.18995-.0002.29179-.0007.57725-.0014.85637-.0008.27913-.014.56513-.0395.858-.0194.14038-.0259.28654-.0194.4385.0065.15193.013.30393.0195.45583.0065.152.0066.3042.0005.4567.0065.152.0129.3039.0194.4559.006.1393.0122.2849.0187.4369.0186.1387.0246.278.0178.4178-.0067.1399-.0071.2794-.0011.4187.0181.1261.0427.2583.074.3965.0143.0374.0225.0815.0247.1321.0016.038.0095.0757.0238.1132l.0627.1305.1213.1661.0594.0546.0594.0545.0792.0727.0396.0364.0974.0529.0388.0174.1354.0513.0578.0166.1734.0497.171-.0073.0759-.0033c.1003-.0296.1752-.0582.2247-.0857.0375-.0143.0931-.0484.1669-.1023l.0663-.2311c.0105-.0512.0149-.0958.0133-.1338-.0022-.0507.002-.1016.0125-.1528.0199-.1277.0412-.2238.0638-.2881.0221-.0771.0254-.147.0101-.2098-.0143-.0374-.003-.0696.0339-.0966.0364-.0396.0857-.0734.1479-.1015.049-.0401.1179-.0621.2065-.0659.0507-.0021.0953.0023.1338.0134.0512.0105.1021.0146.1528.0125l.1139-.0049.114-.0049.2279-.0097c.0633-.0027.1211.0139.1734.0497.0644.0226.098.0656.1007.1289l-.0221.8192c.0027.0633.0051.1203.0073.1709.0021.0507-.0018.1079-.0117.1718-.01.0639-.0139.1211-.0117.1718.0021.0506-.0018.1079-.0117.1717-.0194.1404-.0517.275-.097.4038-.0325.1282-.1037.2454-.2133.3516l-.0182.0198-.0553.0404-.0736.0603-.1834.16c-.0617.0407-.1237.0751-.1859.1031-.0617.0407-.1237.0751-.1859.1031-.2121.0852-.413.1318-.603.1399l-.4179.0179c-.1525-.0062-.305-.0124-.4575-.0186-.1525-.0061-.3052-.0186-.4583-.0375-.115-.0204-.224-.0475-.3269-.0812-.1024-.021-.1993-.0612-.2906-.1208-.076.0033-.1657-.0183-.2692-.0646-.0517-.0231-.0974-.0529-.137-.0893-.0396-.0363-.0792-.0727-.1188-.1091-.0529-.0485-.0993-.0972-.1395-.1463-.0401-.049-.0806-.1043-.1213-.166-.0406-.0617-.0811-.1171-.1212-.1661-.0281-.0623-.0561-.1245-.0841-.1867-.028-.0623-.0434-.125-.0461-.1883-.0033-.076-.0062-.1457-.0089-.209l-.0559-.4162c-.0159-.0755-.0318-.1509-.0477-.2264-.0032-.0759-.0191-.1514-.0477-.2263-.0154-.0627-.0244-.1258-.0271-.1891-.0033-.076-.0062-.1456-.0089-.2089-.0027-.0634-.0118-.1264-.0271-.1892-.0033-.076-.0063-.1456-.009-.2089l-.0352-.3791-.0368-.4171c-.0159-.0754-.0255-.1511-.0287-.2271-.0033-.076-.0065-.1519-.0098-.2279-.0059-.1393-.0055-.2789.0012-.4187.0061-.1525.0126-.2987.0193-.4385.0083-.1019.0106-.1971.0068-.28575-.0037-.08864-.0015-.18388.0069-.28573l.0375-.4583-.0057-.13296-.0081-.18995c-.0499-.27696-.0813-.5674-.0943-.87131-.0059-.1393-.0119-.27859-.0178-.41788.0061-.1525.0126-.29867.0193-.4385s.0005-.28546-.0187-.43687c-.0153-.06278-.0244-.12582-.0271-.18914-.0032-.07598-.0062-.14562-.0089-.20894l.0104-.64744c.0073-.12717.0148-.24801.0226-.36251.0073-.12718.0145-.25435.0218-.38152.0067-.13983.0137-.27333.0209-.40051.0067-.13983.0325-.28048.0772-.42193.0226-.0644.0452-.12879.0678-.19319.0221-.07706.0445-.14779.0671-.21219.0226-.06439.0389-.12852.0489-.19237.022-.07706.0444-.14779.067-.21219.0579-.12933.1161-.25233.1745-.36901.0706-.12987.1544-.24762.2514-.35325l.0182-.01981c.0347-.0776.0884-.15601.1612-.23523.1939-.21126.4294-.34184.7064-.39172l.0933-.04204c.0501-.01483.0688-.02197.0562-.02143l.0182-.01981c.1619-.07034.3188-.10876.4708-.11525l.0759-.00324c-.0374.01428-.0121.0132.076-.00325z"/><path d="m23.1632 1.46622.1329-.00568c.0633-.0027.1082.00807.1346.03231.0396.03637.0608.08621.0635.14953l.6078-.02596c.2037.01668.4143.04575.6317.08721.1536.0315.308.08199.4632.15148.2422.02772.4475.08238.6159.16399.2592.12848.4691.29078.6297.4869.1865.2077.3493.45448.4883.74032.0561.12447.0995.24947.1302.37502s.0618.25743.093.39564l.0947.43364c.0142.03744.0222.07516.0238.11315s.0096.07571.0239.11316.0222.07516.0238.11315c.0138.02479.0215.05618.0231.09417s.0032.07597.0049.11396c.0137.02479.0277.05591.042.09335l.0287.22713c.0154.06277.0247.13215.0279.20813.0154.06277.0244.12582.0272.18913.0016.03799-.0031.07625-.0142.11478.0016.03799.0033.07598.0049.11397l.0081.18994-.002.3997c.0033.07598.0002.15223-.0092.22874.0032.07598.0001.15223-.0093.22875-.0099.06386-.0196.13404-.0291.21056.0028.06332-.0072.12717-.0298.19157-.0321.14092-.0704.2821-.1151.42356-.0321.14091-.09.27025-.1738.388-.1075.15682-.2042.26878-.2901.33588l-.0182.01981-.0727.07922-.1463.13945-.3495.28134c-.0617.04069-.1171.08111-.1661.12126-.0491.04016-.1047.07425-.1669.10228l-.0752.02224c.065.03528.1175.07744.1577.12647.0396.03637.0858.07879.1386.12728.0264.02425.0531.05482.08.09173.0264.02425.0528.04849.0792.07274.0265.02424.0529.04849.0793.07273s.0528.04849.0792.07273c.0407.0617.0811.11706.1213.16612.0522.0358.0987.0846.1394.1462.028.0623.0561.1245.0841.1867.0275.0496.0552.1055.0833.1678.062.2637.1493.5264.262.788.028.0622.05.1311.0659.2065.028.0622.056.1245.0841.1867.028.0622.0436.1313.0469.2073.0153.0628.0307.1256.0461.1883.0318.1509.0636.3018.0954.4527.0318.1508.0637.3017.0955.4526l.1152.4708.0946.4336.1129.4139c.0296.1002.0455.1756.0477.2263l.0016.038c.0154.0627.0241.1194.0263.1701.0148.0501.0109.1074-.0117.1718-.0436.1667-.1483.241-.314.2227l-.057.0024c-.0506.0022-.126.0181-.2263.0477-.0627.0154-.1321.0247-.2081.028-.076.0032-.1451.0188-.2073.0469-.0375.0143-.0752.0222-.1132.0238-.038.0017-.0754.0159-.1123.0429-.0375.0143-.0752.0222-.1132.0238-.0248.0138-.0564.0151-.095.0041-.0643-.0226-.1106-.065-.1386-.1273-.0154-.0628-.0241-.1195-.0263-.1701l-.0016-.038.0125-.1528c-.0116.0259-.0174.0388-.0174.0388.0127-.0005.0188-.0071.0182-.0198l-.0024-.057-.0033-.0759-.0073-.171c-.0027-.0633-.0112-.1137-.0254-.1511-.0022-.0507-.0046-.1077-.0073-.171l-.0025-.057c-.0434-.125-.0865-.2437-.1294-.356-.0307-.1256-.0554-.2577-.074-.3965-.018-.126-.0488-.2516-.0922-.3766-.0307-.1256-.0678-.2508-.1112-.3758-.056-.1245-.1058-.2492-.1492-.3743-.0312-.1382-.0625-.2764-.0938-.4146-.0312-.1382-.0623-.2701-.093-.3956-.0307-.1256-.0744-.2569-.131-.3941-.0423-.0996-.0909-.199-.1459-.2982-.0423-.0997-.0973-.1988-.165-.2974-.0544-.0865-.1339-.1656-.2384-.2372-.0523-.0358-.0983-.0719-.1379-.1083s-.0852-.0661-.137-.0893c-.0517-.0232-.1662-.031-.3435-.0234-.1652-.0056-.2791-.0007-.3419.0146l-.152.0065c-.0126.0005-.025.0074-.0371.0206l.004.095.0065.152-.0036.3617c.0027.0633.0052.1203.0073.1709.0148.0501.0236.1068.0263.1702l.0344.36.0515.759c.0186.1388.0242.2717.017.3989.0054.1266.0174.2593.036.3981l.068.7011.0073.171c.0006.0127.0014.0317.0024.057.0006.0126-.0063.0002-.0206-.0372.0154.0628.0242.1195.0263.1701.0143.0375.0228.0879.0255.1512s.0054.1266.0081.1899c.0148.0501.0299.1066.0453.1694.0143.0374.0231.0941.0263.1701l.0057.133c.0043.1013.0009.1712-.0101.2097.0148.0501.017.1008.0065.152-.0226.0644-.0656.0979-.1289.1006s-.1203.0052-.171.0073c-.0506.0022-.1073.0109-.1701.0263-.0622.028-.119.0368-.1701.0263-.0507.0022-.1077.0046-.171.0073l-.4179.0179c-.0633.0027-.1203.0051-.1709.0073-.0501.0148-.1069.0235-.1702.0262l-.0388-.0173c-.0759.0032-.1156-.0331-.1188-.1091l-.0016-.038-.0025-.057c-.0016-.038.0029-.0826.0134-.1338-.0027-.0633-.0054-.1266-.0082-.1899.0095-.0765.0128-.1465.0101-.2098s-.0117-.1263-.0271-.1891c-.0027-.0633-.0117-.1264-.0271-.1891-.0154-.0628-.0307-.1256-.0461-.1884-.0032-.0759-.0062-.1456-.0089-.2089s-.0115-.12-.0263-.1701c-.0022-.0507-.0046-.1077-.0073-.171-.0049-.114-.0097-.2279-.0146-.3419.0078-.1145.0093-.2287.0044-.3427-.0054-.1266-.0042-.2472.0036-.3617.0199-.1277.0272-.2549.0217-.3815-.0027-.0633.001-.1269.0109-.1908.0094-.0765.0128-.1464.0101-.2097-.0027-.0634.0009-.1269.0109-.1908.0094-.0765.0128-.1464.0101-.2097l.0027-.3807-.0081-.19-.0247-.1321c-.0153-.0628-.0244-.1259-.0271-.1892-.0032-.076-.0125-.1453-.0279-.2081-.0153-.0628-.0244-.1258-.0271-.1891-.0032-.07602-.0062-.14567-.0089-.20898l-.0349-.81677c-.0032-.07598-.0065-.15196-.0097-.22793-.0033-.07598-.0002-.15223.0093-.22875.0094-.07652.0188-.15304.0282-.22956s.0188-.15303.0283-.22955c.0061-.1525-.0003-.30446-.0195-.45587-.0192-.15142-.032-.3031-.0385-.45506l-.0389-.91174c-.0059-.13929-.0056-.27886.0012-.41869.0061-.1525.0126-.29866.0193-.4385l-.0005-.45668c.0094-.07652.0189-.15304.0283-.22956.0094-.07651.0188-.15303.0282-.22955.0124-.305-.0009-.61524-.0397-.93074-.0186-.13875-.0372-.2775-.0558-.41625-.0065-.15196-.0064-.29786.0003-.43769l.0003-.43769c-.0043-.1013-.0012-.17755.0093-.22874-.0132-.01212-.0203-.03085-.0214-.05617l-.0025-.05699.0324-.13458c.0115-.02587.0107-.04486-.0025-.05698-.0005-.01267.005-.03193.0166-.0578.0363-.03961.1046-.07424.2049-.10389.1002-.02966.2073-.04691.3213-.05178.1139-.00487.2216-.00946.3229-.01379zm.5842 1.64962c.0153.06278.0183.13242.0089.20894.0027.06332.0054.12663.0081.18995.0054.12663-.0021.24747-.0226.36252-.0204.11505-.0406.23643-.0605.36414-.01.06385-.0133.13377-.0101.20975.0027.06331-.0009.1269-.0109.19076l-.0218.38151c-.0099.06386-.0199.12771-.0298.19157.0027.06331.0054.12663.0081.18994.0027.06332.0057.13296.0089.20894.0027.06332-.0009.1269-.0109.19076-.0099.06386-.0136.12744-.0109.19076.0022.05065-.0017.1079-.0117.17176-.0099.06385-.0136.12744-.0109.19076.0149.05011.0236.10682.0263.17013l.0341.79778.0341.79777c.0027.06331.0054.12663.0081.18994.0021.05066.0109.10737.0263.17014l.0461.18833.038-.00163.1346.03232.5682-.06232.1321-.02468.1843-.14107c.0733-.06656.1405-.12652.2016-.17987.0733-.06656.1466-.13312.2198-.19968l.2587-.18231c.0369-.02695.0672-.05995.0909-.09902.0364-.03962.0664-.07896.0901-.11803s.054-.07208.0909-.09903c.0369-.02694.0675-.05362.0917-.08003l.0364-.03961.0465-.24936c.0115-.02587.0102-.05753-.0041-.09498-.0016-.03799-.003-.06964-.0041-.09497-.001-.02532-.0085-.05038-.0222-.07517-.0016-.03798-.003-.06964-.0041-.09497l.0218-.38151c.0194-.14038.0264-.27388.021-.40051-.006-.13929-.0119-.27859-.0179-.41788-.0059-.13929-.0116-.27226-.017-.39889s-.0238-.25905-.055-.39726c-.0494-.2643-.1304-.52725-.243-.78885-.0423-.09968-.0971-.19249-.1642-.27843-.0549-.09914-.122-.18508-.2013-.25781-.1457-.14601-.3403-.24554-.5836-.29858-.1024-.021-.2744-.03902-.5161-.05408-.229-.01559-.3947-.03389-.4971-.05489z"/><path d="m31.8592 1.43743c.1393-.00595.2722-.01163.3988-.01704.1267-.0054.2547.02085.384.07876l.0586.03555.1899-.00811c.3056.02501.5571.1221.7546.29128.0792.07273.1461.15234.2005.23882.0671.08593.1345.1782.2021.2768.0677.0986.129.19748.1839.29662.0545.08647.1092.17928.1642.27843.0687.12392.1247.24839.1681.3734.0561.12447.1124.25527.169.3924.0561.12446.0995.24947.1302.37502.0308.12555.0618.25743.093.39564.0318.15088.051.30229.0575.45425.0191.15142.0446.30256.0764.45344l.0008.01899.0009.01899.023.09417.0461.18832c.0159.07544.0258.15748.0295.24612.016.07544.0258.15748.0296.24612.0186.13875.0311.2841.0376.43606.006.13929.0119.27859.0179.41788l.0219.51285.017.39889.045.60701.0048.11397c.0262.31604.0461.63234.0596.94892.013.30391.0262.61412.0397.93072.0027.0633-.0006.1332-.0101.2098.0027.0633.0054.1266.0082.1899l.0178.4179c.0059.1393.0122.2849.0187.4369.0059.1393-.0008.2791-.0202.4195-.0094.0765-.0188.153-.0283.2295.0033.076-.0061.1525-.0282.2296-.0226.0644-.0387.1348-.0481.2114-.0099.0638-.0199.1277-.0298.1915-.0111.0386-.0158.0768-.0142.1148s-.0031.0762-.0141.1148c-.0232.0517-.0342.0902-.0331.1156-.01.0638-.0326.1282-.0679.1932-.0232.0517-.0524.11-.0877.175-.0711.1172-.1551.2286-.2521.3342l-.0182.0198c-.0716.1046-.1626.2036-.2727.2971-.0849.0924-.1708.1595-.2579.2013l-.0743.0412-.0562.0215c-.1112.0682-.2478.1374-.4097.2078l-.019.0008-.0744.0412-.2611.1253c-.1239.0688-.2872.1074-.4898.1161-.1899.0081-.3807-.0028-.5722-.0327l-.3246-.0242c-.0132-.0121-.0388-.0173-.0768-.0157-.0379.0016-.0253.0011.038-.0016-.153-.0189-.3126-.0438-.4789-.0747-.153-.0189-.2947-.0699-.4252-.1531l-.1378-.1083c-.0259-.0116-.0652-.0416-.118-.0901s-.1054-.0907-.1576-.1265c-.0402-.049-.0806-.1044-.1213-.1661-.0803-.098-.1606-.1961-.2409-.2942-.0682-.1112-.124-.2294-.1674-.3544-.028-.0622-.056-.1244-.0841-.1867-.0285-.0749-.0568-.1434-.0849-.2057-.028-.0622-.0497-.1247-.0651-.1875-.0159-.0754-.0318-.1509-.0477-.2263-.0154-.0628-.0244-.1258-.0271-.1891-.0032-.076-.0126-.1454-.0279-.2082-.0154-.0627-.0368-.1189-.0643-.1685-.0154-.0628-.0244-.1258-.0271-.1891-.0016-.038-.0096-.0757-.0239-.1132-.0016-.038-.0032-.076-.0048-.1139l-.0098-.228c-.0027-.0633-.0056-.1329-.0089-.2089-.0032-.076-.0125-.1454-.0279-.2081-.0038-.0887-.0128-.1517-.0271-.1892l-.0461-.1883c-.0159-.0754-.0255-.1511-.0287-.2271.0094-.0765.0125-.1528.0092-.2288-.0065-.1519-.013-.3039-.0194-.4558-.0065-.152-.0193-.30368-.0385-.4551-.0032-.07598-.0128-.15168-.0287-.22712s-.0255-.15115-.0288-.22713l-.0194-.45586-.0211-.49386c-.0027-.06332-.0054-.12663-.0081-.18995.0094-.07652.0128-.14643.0101-.20975.0067-.13983.0007-.27913-.0179-.41788-.0065-.15196 0-.29812.0193-.4385-.0043-.1013-.0009-.17122.0101-.20975l.034-.09659.0339-.0966-.0049-.11397c-.0016-.03798-.0032-.07597-.0048-.11396-.0022-.05066.0022-.09525.0133-.13378l.0084-.24774c-.0054-.12663-.0031-.22187.0068-.28573l.0267-.26754c.021-.10239.0304-.17891.0282-.22956-.0043-.1013-.002-.19655.0069-.28573.0215-.08972.0364-.1855.0448-.28735.0083-.10185.0169-.19736.0258-.28654s.0238-.18497.0448-.28735c.01-.06386.0139-.12111.0117-.17176.0105-.0512.0274-.10266.0505-.15439l.0836-.26998.0845-.25099c.011-.03853.0223-.07073.0339-.09659.0237-.03907.0411-.07787.0521-.1164.0525-.25597.1383-.47529.2574-.65798.1548-.23497.3615-.44677.6198-.63541.1603-.10833.3027-.19053.4272-.24658.1118-.05552.2563-.08707.4336-.09464zm.0697 1.63353-.1661.12127-.0735.06022-.0364.03962-.2008.19886-.0174.0388-.0174.0388-.1159.40457c-.0221.07706-.0442.15412-.0662.23117-.0221.07706-.0379.15385-.0473.23037l-.0581.42113-.0755.45992-.0291.21056.0024.05699.0025.05698c-.0189.15304-.0314.30581-.0375.4583.0064.15196.0066.30419.0004.45668l-.0205.85719c-.0123.305-.0117.61578.0018.93236.013.30391.0386.60728.0769.91011.0383.30284.0576.60648.0579.91094.013.3039.026.6078.039.9117.0065.152.0129.3039.0194.4559s.0257.3034.0575.4542l.0247.1322.0024.057.0263.1701.0938.4147.131.394.0222.0751.0817.1298.0602.0735.0793.0727.1386.1273.236.1802.0776.0348.038-.0016.095-.0041.2081-.0279.0942-.0231c.1514-.0191.3017-.0636.451-.1334l.1867-.0841.0372-.0206.0363-.0396.0546-.0594.1099-.0999.1273-.1386.0364-.0396c.0595-.0914.1064-.1822.1406-.2724l.0165-.0578-.0008-.019.0505-.1544.0307-.1726-.0016-.038-.0033-.0759c.0194-.1404.0264-.2739.021-.4006.0072-.1271.0142-.2606.0209-.4005l.023-.8002.0242-.3245-.0328-.3221c-.006-.13929-.0119-.27858-.0179-.41787.0062-.1525.0063-.2984.0004-.43769-.0033-.07598-.0065-.15196-.0098-.22794-.0032-.07597-.0128-.15168-.0287-.22712l-.0032-.07598-.0008-.01899c-.0308-.12555-.0475-.21998-.0502-.2833-.0065-.15195-.0193-.30364-.0385-.45506-.0064-.15195-.0129-.30391-.0194-.45587-.0065-.15195-.013-.30391-.0195-.45587-.0065-.15195-.0193-.30364-.0385-.45505l-.0303-.26512-.0032-.07597-.0025-.05699-.0509-.30229-.0009-.01899-.0222-.07517c-.0296-.10022-.0593-.20045-.089-.30067-.0175-.11343-.0411-.22025-.0707-.32047-.0297-.10023-.0651-.18752-.1063-.26187-.0292-.08756-.0522-.18172-.0692-.28249-.017-.10076-.0337-.19519-.0502-.28329-.0037-.08864-.0205-.18308-.0501-.2833-.0307-.12555-.0601-.21944-.0882-.28167-.0142-.03745-.0222-.07517-.0238-.11316s-.0096-.07571-.0239-.11316l-.023-.09416-.1427-.22226-.1213-.16608-.1172-.07111-.0586-.03556-.019.00081-.0388-.01737-.1148-.01413-.019.00081-.1139.00487-.19.00811-.038.00162z"/><path d="m38.9839.885821c.0903.034205.1056.096979.0461.188319-.0474.07815-.0932.19428-.1374.3484-.0099.06385-.0259.13431-.048.21137-.01.06385-.0263.12798-.0489.19238-.0221.07706-.0436.16678-.0646.26917l.0089.20894c.0022.05065-.0023.09524-.0133.13377.0016.03799.0032.07598.0048.11397.0055.12663.0029.21554-.0076.26673s-.0213.09605-.0323.13458c.0016.03799.0035.08231.0057.13297l.0105.24693c-.0221.07706-.0312.15991-.0274.24855.0159.07544.0255.15114.0287.22712l.0251.58883c.0044.10131.0087.20261.013.30391.0165.08811.0269.18281.0312.28411l.013.30392c.0043.1013-.0115.17809-.0473.23036.0137.02479.022.06884.0247.13215.0423.09969.0653.19385.0691.28249.0176.11343.0224.22739.0146.3419.0043.10131.0023.20288-.006.30473-.0094.07651-.0188.15303-.0282.22955.0032.07598.0064.15196.0097.22794.0027.06331-.0007.13323-.0101.20975-.0099.06385-.0136.12744-.0109.19075-.0067.13984-.0005.28546.0187.43688.0186.13875.0182.27832-.0012.41869-.011.03853-.0157.07679-.0141.11478.0143.03745.0222.07517.0239.11316.001.02532-.0039.05725-.015.09578.0011.02533.0025.05698.0041.09497l-.0218.38152c-.0094.07651-.0125.15276-.0093.22874.0033.07598.0065.15196.0098.22794-.0094.07651-.0125.15276-.0093.22874.0033.07598.0065.15196.0098.22789l.0381.8928c.0016.038.0032.076.0048.114.0138.0247.0278.0559.0421.0933l.0089.2089c.0154.0628.0247.1322.0279.2082.0033.076.0062.1456.0089.2089.016.0755.0255.1512.0288.2271.0159.0755.0255.1512.0287.2272.0027.0633-.0007.1332-.0101.2097.0027.0633.0054.1266.0081.19l.0049.1139.057-.0024c.1277.0199.2422.0277.3435.0234.1008-.017.2203-.0411.3585-.0724.0633-.0027.1266-.0054.1899-.0081.0755-.0159.1448-.0252.2081-.0279.0259.0115.0515.0168.0768.0157.038-.0016.07.0034.0958.015l.057-.0025c.0633-.0027.1137-.0112.1512-.0255l.4178-.0178c.076-.0032.152-.0065.228-.0097.0881-.0165.1704-.02.2469-.0106l.152-.0065c.1123-.0428.2326-.048.3608-.0154.0386.0111.0774.0284.1164.0521.0512.0105.0779.0411.0801.0918.0159.0754.0255.1511.0287.2271.0159.0754.0255.1511.0287.2271.0264.0243.0278.0559.0041.095l.0016.038c.0523.0358.0792.0727.0809.1107l.0198.0182c.0032.076-.0131.1401-.0489.1924.0533.0611.0563.1308.0089.2089-.0099.0639-.0394.1159-.0885.156-.0495.0275-.0991.055-.1487.0825-.0743.0412-.1495.0635-.2255.0667-.1002.0296-.1886.0398-.2651.0303-.1002.0297-.182.0459-.2453.0486l-.2469.0105c-.0248.0138-.0562.0214-.0942.0231-.0259-.0116-.0515-.0169-.0768-.0158l-.076.0033-.5864.0821c-.1007.017-.2015.034-.3023.051-.1007.0169-.202.0213-.3039.0129l-.5318.0227c-.0887.0038-.1776.0013-.2667-.0076-.0766-.0094-.1525-.0062-.228.0097l-.1709.0073c-.0122.0132-.0372.0207-.0752.0223-.0253.0011-.0383-.0047-.0388-.0174-.0248.0137-.0688.022-.1322.0247l-.0379.0016c-.0248.0137-.0689.022-.1322.0247-.0374.0143-.0878.0228-.1511.0255-.1013.0043-.1776.0012-.2288-.0093-.0517-.0232-.0657-.0543-.042-.0934-.0132-.0121-.0201-.0245-.0206-.0371-.0281-.0623-.0432-.1187-.0453-.1694.0099-.0638.0136-.1274.0109-.1907-.0017-.038-.0096-.0757-.0239-.1132-.0022-.0506-.0043-.1013-.0065-.1519-.0043-.1013-.015-.2024-.032-.3031-.0048-.114-.0158-.2214-.0328-.3221-.0218-.2148-.0434-.4232-.0647-.6252-.0219-.2148-.0374-.4298-.0466-.645-.0189-.4432-.0376-.8801-.0559-1.3107-.0058-.431-.0181-.86819-.037-1.3114-.0144-.63369-.0345-1.25445-.0605-1.86227-.0265-.62049-.034-1.24179-.0225-1.8639.0094-.07652.0125-.15277.0093-.22875-.0033-.07598-.0002-.15223.0092-.22874-.0027-.06332-.0054-.12664-.0081-.18995-.0032-.07598-.0125-.14535-.0279-.20813-.0313-.13821-.0565-.28303-.0756-.43444-.0192-.15142-.0317-.29677-.0377-.43606-.0059-.1393-.0122-.28492-.0186-.43688.0061-.1525.0126-.29866.0193-.4385-.006-.13929-.0177-.26565-.0352-.37908-.0181-.12609-.0301-.25878-.0361-.39807-.0291-.08756-.0331-.18253-.0121-.28492-.0022-.05065-.0104-.0947-.0247-.13215s-.0222-.07517-.0239-.11316c-.0164-.0881-.0078-.18361.0259-.28654.0231-.05173.0598-.08501.1099-.09984.0622-.02803.1192-.03046.1709-.0073.0628-.01536.1132-.02386.1512-.02548.0506-.00216.1071-.01726.1693-.04529.0628-.01536.1258-.0244.1891-.0271.0628-.01537.1259-.02441.1892-.02711.0374-.01428.0878-.02278.1511-.02548.0628-.01537.1256-.030735.1883-.046101.038-.001622.076-.003244.114-.004866.0501-.014826.1008-.016989.152-.006489l.038-.001622c.0126-.000541.0316-.001352.0569-.002433.0248-.013745.0248-.013745 0 0 .0248-.013745.0562-.021428.0942-.02305.0496-.027489.0936-.035714.1322-.024673.0749-.02857.1379-.037605.1891-.027105z"/><path d="m44.7608.943614c.0749-.028571.1267-.005408.1552.069486.0413.07436.064.16219.0684.26349.0143.03745.0233.1005.0271.18914l.0024.05698c.0132.01212.0203.03085.0214.05617.0027.06332-.0012.12057-.0117.17177-.0105.05119-.0144.10844-.0117.17176l.0336.34109c.0049.11397.0098.22793.0146.3419.0049.11397.0222.22106.0518.32129.0318.15087.051.30229.0575.45424.0191.15142.0319.30311.0384.45506l.0365.85476c.006.13929.0122.28492.0187.43687.0186.13876.0245.27805.0178.41788-.0094.07652-.0125.15277-.0092.22875.0032.07598.0064.15195.0097.22793.0016.03799-.0031.07625-.0141.11478.0016.03799.0032.07598.0048.11397.0038.08864.0002.15223-.0109.19076.0011.02532-.0041.05092-.0157.07678.0005.01267.0013.03166.0024.05699l.0041.09497.0089.20894.0162.37989c.0033.07598.0002.15223-.0092.22875.0032.07598.0001.15223-.0093.22874.0011.02533-.0039.05726-.0149.09579.001.02532.0021.05065.0032.07598l.0097.22793c.0022.05065-.0072.12717-.0282.22956.0286.07489.0437.13134.0453.16933l-.006.30472c.0043.10131.002.19655-.0069.28573-.0088.08918-.0111.18443-.0068.28573l.0268.62682-.0052.32376c.0021.0506-.002.1015-.0125.1527.0016.038.0035.0823.0056.133-.008.4063.009.8052.0511 1.1966.0044.1013.0084.1963.0122.285.0164.0881.0268.1828.0312.2841l.004.0949.0089.209.038-.0016c.0253-.0011.0441-.0083.0562-.0215.0242-.0264.049-.0401.0743-.0412l.1908.0109c.1398.0067.2731.0074.3997.0019.1393-.0059.2794.0071.4203.0392.0644.0226.1283.0326.1916.0299.076-.0033.1459.0001.2097.01.0639.01.1277.02.1916.0299.0765.0094.147.0255.2114.0481l.1932.0678c.0638.01.1279.0263.1923.0489.0518.0232.0969.0403.1354.0513.0512.0105.0906.0406.1181.0901.0517.0232.085.0598.0998.1099l.0222.0752.0009.019.0024.057.0016.038c.0264.0242.0402.049.0412.0743.0027.0633-.0009.1269-.0108.1908-.0105.0512-.0271.109-.0497.1734l-.0332.1156c.0011.0253-.0099.0638-.0331.1156l-.0331.1155-.0828.289c-.0337.1029-.1144.1444-.2421.1245-.0506.0022-.0889-.0025-.1147-.0141-.0259-.0116-.0518-.0232-.0776-.0347-.0259-.0116-.0518-.0232-.0776-.0348 0 0-.0064.0003-.019.0008-.0127.0006-.0256-.0052-.0388-.0174l-.0768-.0157-.0388-.0174-.057.0025-.0578-.0166-.057.0024-.3055-.025c-.0639-.0099-.1275-.0136-.1908-.0109s-.1272-.0072-.1915-.0298l-.0389-.0174-.0379.0016-.0578-.0166-.0578-.0165-.0388-.0174-.076.0033-.5153-.0351-.1916-.0299-.0767-.0158.0189-.0008-.0767-.0157-.19.0081-.0388-.0174-.5112.0599-.209.0089-.0966-.0339c-.1266.0054-.2113-.0481-.2542-.1604-.0143-.0375-.023-.0942-.0263-.1702l-.0453-.1693c-.028-.0622-.0434-.125-.0461-.1883-.0032-.076-.0065-.152-.0097-.2279l-.0024-.057-.0247-.1322c-.0165-.0881-.0329-.1762-.0493-.2643-.0038-.0886-.0076-.1773-.0114-.2659-.0065-.152-.013-.3039-.0195-.4559-.007-.1646-.0011-.3234.0177-.4765.021-.1023.036-.1981.0449-.2873.0088-.0892.0111-.1844.0068-.2857l-.0235-.5509-.0211-.4938c-.006-.13933.0013-.2665.0217-.38155.02-.12771.0396-.26175.059-.40213.0188-.15304.0187-.30526-.0005-.45668-.0065-.15196-.013-.30391-.0194-.45587l-.0374-.87375c-.0064-.15196-.0129-.30391-.0194-.45587s-.0003-.30445.0185-.45749c.0315-.15358.044-.30635.0375-.4583l-.0186-.43688c-.0076-.17728-.0276-.34769-.0599-.51123-.0197-.16408-.0333-.33476-.0409-.51204-.007-.16462-.0138-.32291-.0203-.47486-.0065-.15196-.0069-.31052-.0013-.47568.0124-.30499-.0001-.59624-.0373-.87375l-.0295-.24612c-.0345-.21419-.0437-.42946-.0276-.64581l-.0206-.03718c-.0011-.02533-.0085-.05038-.0223-.07517-.001-.02532-.0021-.05065-.0032-.07598l-.0016-.03798c-.0022-.05066.0025-.08892.0141-.11478l-.023-.09416-.0033-.07598c-.0401-.04903-.055-.09914-.0445-.15034.0227-.06439.0656-.09794.1289-.10065l.076-.00324c.0369-.02695.0807-.04151.1314-.04367.0506-.00216.0949-.00405.1329-.00568.0507-.00216.095-.00405.133-.00567.0501-.01483.1005-.02332.1511-.02549.1013-.00432.2026-.00865.3039-.01297.1013-.00433.2018-.02765.3015-.069964z"/><path d="m36.7175 100.423c1.2505-.9164 1.8332-2.5115 2.4374-3.8784.7071-1.6004 1.4042-3.1971 2.0834-4.7994 1.3938-3.2633 2.7462-6.5455 4.106-9.8226.3808-.9161-1.1503-3.013-1.6692-1.7641-1.1341 2.7473-2.27 5.4821-3.421 8.2174-.9768 2.3073-1.9 4.6718-2.9729 6.9352 2.5426-9.7164 4.5958-19.5744 5.4902-29.5823.9679-10.843-.0888-24.2828-.8492-31.8876-1.3767-5.8441-2.4389-6.2027-3.6486-8.6344-.2056-.4132-.7004-1.1388-1.2652-.8879-.5389.2403-.389 1.145-.1867 1.5374 4.6628 9.1767 3.9598 10.2664 4.3399 20.7224.8507 11.0862-.2607 22.214-2.3637 33.0961-1.1105 5.7579-2.5046 11.4532-4.0427 17.1102-.1959-1.0078-.3835-2.017-.5711-3.026-.5341-2.8855-1.0037-5.7791-1.4253-8.6785-.0808-.5757-.3814-1.3476-.9999-1.543-.5644-.1743-.8745.3712-.7996.8841.4873 3.3394 1.0365 6.6688 1.6579 9.9843.2897 1.5857 1.0355 8.2671 4.1003 6.0171z"/></g></svg>