<svg fill="none" height="119" viewBox="0 0 93 119" width="93" xmlns="http://www.w3.org/2000/svg" xmlns:xlink="http://www.w3.org/1999/xlink"><linearGradient id="a" gradientUnits="userSpaceOnUse" x1="46.4932" x2="46.4932" y1=".299316" y2="118.655"><stop offset="0" stop-color="#ffdda5"/><stop offset="1" stop-color="#c28d46"/></linearGradient><path d="m10.388 73.3811-.15-.1986h-.0148c-6.70411-8.974-9.843178-20.1129-8.81436-31.2685 1.03633-11.2381 6.23515-21.6862 14.57666-29.2883l.0002-.0001c8.3411-7.60787 19.2205-11.826284 30.5089-11.826284 11.2839 0 22.1685 4.218444 30.5044 11.826184l.0003.0002c8.3414 7.6024 13.5403 18.0504 14.5767 29.2883v.0002c1.0421 11.2379-2.1567 22.4585-8.9635 31.4669l-32.467 42.9619h-.0002c-.8623 1.143-2.2095 1.812-3.6451 1.812-1.4355 0-2.7827-.669-3.645-1.812h-.0002zm36.1121-51.9969h-.118l-.0013.0006c-6.3363.0424-12.4026 2.5728-16.8863 7.0561-4.5114 4.5109-7.0508 10.6248-7.0566 17.0049v.0004c0 6.3853 2.5334 12.5051 7.0453 17.017l.0002.0002c4.517 4.5116 10.6369 7.045 17.0167 7.045s12.4994-2.5334 17.0167-7.045l.0002-.0002c4.5119-4.5116 7.0453-10.6314 7.0453-17.017 0-6.3795-2.5334-12.4993-7.0452-17.0111l-.0003-.0002c-4.5168-4.5114-10.6363-7.0507-17.0167-7.0507z" stroke="url(#a)"/></svg>