<svg fill="none" height="16" viewBox="0 0 12 16" width="12" xmlns="http://www.w3.org/2000/svg"><path d="m1.47645 9.82304 4.03354 5.33086c.11892.1574.3046.2494.50218.2493.19759-.0001.38315-.0923.50189-.2499l4.02724-5.33562c.8536-1.13112 1.2543-2.53964 1.1226-3.95005-.1309-1.41038-.7841-2.72131-1.83165-3.67487-1.04681-.95423-2.41323-1.482873-3.82947-1.482035-1.4168.000839-2.78195.531095-3.82826 1.486565-1.04639.95476-1.698115 2.26649-1.827348 3.67704-.129244 1.41054.27237 2.81864 1.127338 3.94872zm4.5286-6.43282c.77554-.00046 1.51963.30777 2.06906.85588.54877.54812.85717 1.29184.85763 2.06734.00046.77625-.30706 1.52033-.85518 2.06906-.54882.54877-1.29254.85717-2.06805.85763s-1.51964-.30706-2.06907-.85518c-.54877-.54811-.85717-1.29184-.85763-2.06805.00025-.77555.30849-1.51893.85659-2.06763.5481-.54869 1.29114-.85717 2.06661-.85903z" fill="#fff"/></svg>