<svg fill="none" height="252" viewBox="0 0 242 252" width="242" xmlns="http://www.w3.org/2000/svg"><g fill="#ffdda5"><path d="m82.4774 29.3024c.455 1.7605-1.7858-.5476-2.819.7566.4899 2.7438 5.6203.7508 2.819-.7566z"/><path d="m84.609 30.9033c-.455-1.7605 1.8383-.7329 2.1359-.6416-.9101-3.521-2.1708-.3416-3.4837-1.3927l.5426 1.4632c.21.3886.4201.7772.8052.5711z"/><path d="m58.4045 46.8481c1.5495-.8345 3.5749-2.1779 4.0843-1.6942 2.2571-3.2369 6.3203-2.6456 8.2784-5.9742 2.9222-1.0683 7.2507-1.3779 9.9288-3.8308-4.3285.3095-8.5014 2.304-12.4637 4.6905-1.9369 1.0431-3.9622 2.3865-5.9876 3.7299s-3.9623 2.3865-5.9877 3.7299c-.3537 1.2012.8969.2751 2.1475-.6511z"/><path d="m134.202 23.6961c1.104.6625 2.296 1.0269 3.102 1.5983-1.016-.9606-1.91-1.2339-3.102-1.5983z"/></g><path d="m38.0855 86.8698c.9182-2.011 2.5229-4.1389 3.9507-5.666 1.5162-1.8275 3.1545-2.9626 5.3025-3.6138.5096.4838-.3538 1.2015-1.2173 1.9192-.8633.7177-1.4277 1.5272-.1432 1.5936 2.1143-1.6441 4.8477-5.3908 5.888-6.7093 2.4259 1.7265-1.4614.5343.876 2.5612 1.9037-2.0362 2.169-2.9373 4.8602-2.1119l-2.4681 2.8456-2.2575 3.2377c-1.6047 2.1279-2.9104 4.3476-4.2161 6.5672 1.8826.2499 1.7817-2.7287 3.0325-3.6551 2.7797.5251 1.8153-1.7358 4.5065-.9104-2.2912 2.2449-2.0681 5.9159-4.2161 6.5672.5096.4838.8086.5755 1.0192.9676-.0885.3004-.1769.6007-.4759.509-.3875.2087-.775.4174-.5644.8095-2.047 3.6298-3.4959 7.443-4.7343 11.6479-.4423 1.502-.8845 3.004-1.0278 4.598-1.4951-.459-1.7604.442-3.045.376-.1221-.693 1.2173-1.919-1.0528-1.961-1.373.234.1894 2.679-2.9777 2.362 1.1836-2.912-1.1201-3.946.6952-5.682-3.7315.493-2.8008 1.761-2.5229 4.139-2.0932-.642-5.4247 2.922-3.8075 4.073-2.0931-.642-2.4469.559-4.54-.083.7412-1.41 4.4391-2.896 2.9103-4.347-.6192 2.102-7.1514 4.356-2.1902 5.223-6.2967 9.204-9.557 23.597-9.7723 37.614-.2614 9.745 3.099 21.584 9.1717 31.962 6.0727 10.377 15.3337 18.786 24.5485 22.922 1.9499 2.236 4.2873 4.262 6.6246 6.289 2.4258 1.727 4.9401 3.153 7.7534 4.671 2.5142 1.426 5.5044 2.343 8.1071 3.469.8971.275 2.3922.734 3.5883 1.101s2.6911.825 3.9757.892c11.2406 2.792 23.3442 4.867 35.5582 4.355 12.214-.511 24.326-4.001 34.367-10.419-.686.117-1.55.834-1.971.05 1.306-2.22 3.032-3.655 5.058-4.999 1.727-1.435 3.963-2.387 5.901-3.43 2.236-.952 4.174-1.995 5.9-3.431 1.727-1.435 3.366-2.57 4.195-4.281 1.529 1.452.068 1.986 1.95 2.236 3.786-1.786 7.661-3.873 11.115-6.744 1.727-1.435 3.752-2.779 5.269-4.606 1.815-1.736 3.331-3.564 4.847-5.391 6.154-7.611 11.465-16.79 14.894-26.218 1.714-4.715 2.919-9.913 4.035-14.811.408-2.495.817-4.989 1.226-7.484.408-2.495.817-4.99.838-7.276.11-2.586.131-4.872.451-7.067.021-2.286.042-4.572-.236-6.95.043-4.572-.69-8.727-.825-12.698-3.335-5.2807-5.841-12.2719-9.033-19.1462-1.596-3.4371-3.579-6.6656-5.264-9.8023-2.072-2.9281-4.531-5.6475-6.869-7.6744 1.141 1.6601 3.302 4.2877 5.374 7.2158 1.684 3.1368 3.58 6.6656 4.102 10.4284-1.529-1.4514-4.233-5.5558-6.726-9.2681-2.493-3.7122-4.776-7.0324-5.108-8.117-.775.4174-1.639 1.1351-2.148.6513.775-.4174 1.937-1.0434 1.516-1.8276-1.196-.3668-2.746.4679-3.854-.1994 1.883.2499.952-1.0181 1.007-2.3113-1.407-.759-2.426-1.7266-3.356-2.9946-1.02-.9676-1.95-2.2356-2.881-3.5036-1.862-2.536-3.424-4.9802-5.252-6.5234-1.006 2.3114-4.262 2.2954-3.521.8852 1.782-2.7287.367 2.0774 2.536-.8599.952-1.0181-2.392-.7337-1.773-2.8364-1.55.8347-.464 3.788-1.959 3.3294-3.289-1.0088-.821-3.8544-4.131-2.5772.265-.9011.531-1.8022.408-2.4947-1.217 1.9192-3.045.3761-4.872-1.167-1.828-1.5432-3.955-3.178-5.682-1.7426l1.693-2.4283c-2.657.1675-4.363-.6832-6.279-1.926-2.005-.9423-3.921-2.1851-6.966-1.809.809.5756.754 1.8688.013 3.279-.632-1.1763-.779-8.4267-2.792-3.804-2.026 1.3437 3.188-1.9697 1.052 1.9605-.775.4173-2.691-.8255-3.023-1.91.442-1.5019 1.339-1.2268 1.815-1.7358-4.73-2.7607-7.93-4.0699-10.71-4.5949s-5.083-1.5591-9.358-2.5427c.863-.7178 1.339-1.2268 2.203-1.9445 1.44 1.7518 2.901 1.2175 5.049.5662 1.074-.3256 2.447-.5595 3.643-.1926-2.303-1.0341-4.607-2.0682-6.999-2.8019-3.677-.8002-7.055-1.5086-10.609-1.6163-3.555-.1077-6.899.1766-10.331.7614-3.433.5848-6.566 1.2613-9.4891 2.3299 2.7461-.4679 5.1041-.727 7.3741-.6858 2.27.0413 4.153.2912 5.947.8414-1.095 2.6117-8.836 1.2201-9.998 1.8461.332 1.0845-.464 3.788.909 3.5541 1.074-.3257 4.385-1.6029 5.438.3575-3.344.2844-6.09.7523-7.8509 1.1948-2.148.6513-3.6978 1.4859-5.1256 3.0131-.4212-.7842-.3664-2.0774-.9644-2.2609-.4423 1.502-2.1143 1.6441-3.4873 1.8781-1.373.2339-2.5354.8599-2.2575 3.2377-.4548-1.7771-.9096-3.5541-1.9835-3.2285.0336.9929-4.418.61-1.4826 2.8204.1769-.6008 2.3796-2.5453 3.0786.6167-3.4324.5848-7.9937 2.7884-11.4809 4.6665-3.5757 2.1783-6.465 4.2398-7.0294 5.0492-1.7729-2.8364 1.2846.0665.2318-1.894-1.6721.1422-2.9777 2.3618-2.1355 3.9302-3.0238-1.91.5096.4838-1.0403 1.3185-.8634.7177-2.0258 1.3437-2.9777 2.3618-.9518 1.0181-2.1142 1.6441-3.3651 2.5705-2.2027 1.9445-4.4055 3.8889-6.6967 6.1338-2.2027 1.9445-3.8958 4.3728-5.1131 6.292-1.2172 1.9192-2.0469 3.6298-2.1017 4.9231-2.7883 5.04-5.6102 9.0871-7.8341 13.3177-1.0066 2.3113-2.2238 4.2305-3.2305 6.5419-.7076 2.403-1.7143 4.7143-2.1229 7.2091 1.571-3.1208 3.1969-7.5347 5.7198-11.6736zm5.6632 36.1252c.1433-1.593.2865-3.187.4298-4.78.1432-1.594.2865-3.188.6403-4.389.0885-.301.1769-.601.3538-1.202-.5518 4.089-.7162 7.968-.5816 11.94-.5644.809-1.1288 1.619-1.9922 2.336.6529-1.109 1.0951-2.611 1.1499-3.905zm78.8323-98.3099c-.653 1.1098-1.727 1.4355-3.222.9769.741-1.4102-1.209-3.6458-1.019-.9676-.687.1169-.51-.4838-.422-.7842l.144-1.5936c1.916 1.2427 2.48.4333 4.519 2.3685zm-9.203-.8574c-1.562-2.4442-1.217 1.9193-3.011 1.369.476-.5091.741-1.4102.143-1.5936-.455-1.7771 3.664-2.4788 2.868.2246zm-54.3689 51.774c1.0528 1.9605-1.1163 4.8978-3.9296 3.38 1.672-.1423 2.6787-2.4536 3.9296-3.38z" fill="#fff"/><path d="m163.31 35.198c3.378 3.9525-3.028-5.142-3.275-1.0031.859-.7096 1.313 1.0506 3.275 1.0031z" fill="#ffdda5"/><path d="m23.9691 118.152c-.0692-1.966 3.1005-3.912 1.8755-5.26-.2284 1.875-3.6957 3.73-1.8755 5.26z" fill="#ffdda5"/><path d="m99.4151 29.2267c.5603-.8007.4904-2.7673.0354-4.5279-2.0833-.639-.9105 1.9901-2.066 2.6083.9282-4.2541-2.4685-.4329-3.9915-1.8727 1.5929 3.4064-6.0923-.2477-4.5521 4.4393 3.2565-2.2431 6.0575-.7356 10.5742-.647z" fill="#ffdda5"/></svg>