<svg fill="none" height="137" viewBox="0 0 141 137" width="141" xmlns="http://www.w3.org/2000/svg"><path d="m13.4768 92.842c.1039-.0252.1039-.0252 0 0-.6173-1.6389-.5598-3.2178-.2944-4.8471.0016-.4475.0032-.895.0559-1.1314-1.1882-1.7241-2.1205-2.3924-2.4708-6.1082.1599-1.1566 1.1465-1.1721 1.719-1.5345-.1551-.1859-.2063-.3971-.3614-.5831-.104.0252-.2591-.1607-.3103-.3719 0 0 0 0 .104-.0252-2.52996-4.0818-4.6441-8.2643-4.0062-12.4431 6.1405-3.7239 12.7991-7.1263 19.8206-10.393-.3102-.3719-.5645-1.8753-.8763-1.7997-.2143 1.8404-1.3993-.7787-2.3379.343-.5181-.3215-.3567-1.9256-.7725-1.8249.0449 2.0013-5.2065 3.9447-4.6277 1.7923-.5197.126-.3678 1.207-.6812 1.7301-.6669-2.2976-.937.6742-1.863-1.7842 1.4552-.3526 3.1214-1.6507 4.5222-1.3195-.1023-.4224-.2558-1.0559-.4621-1.453 2.9567.8484 4.4758-2.8733 6.4411-.6668-.363-.1356-.6669-2.2976-.9787-2.2221-.8859.8854-1.6087-.2808-1.5111 1.4841-.2559-1.0558-.5165-.7691-.774-1.3774.6748.06.4701-.7846.5244-1.4685.2591.1608 1.3449 1.4626 1.0891.4068-.2575-.6083-.5614-2.7703-.926-2.4584.3055 1.7145-.3614-.5831-.3166 1.4181-.0992-1.3174-.5661-1.4278-.4078-2.1368.2063.3971 1.1977-.961 1.8677.4416-1.5401-4.9924-2.5441-.0541-3.2142-1.4567.3693-1.6545 1.7206-1.982 2.8623-1.8116-.1023-.4223-.2559-1.0558-.4622-1.4529.2607-.2867.6764-.3875.9371-.6743.5181.3216.2015 1.7397.7724 1.8249.6237-.1511-.1487-1.976.4749-2.1272.7197 2.0613-.6221-.2963.2 2.1873.2094-.4979 1.3559-1.6701 2.0276-.715-.1535-.6335-.4622-1.453-.2543-1.5034.7708 2.2725 1.6567 1.387 1.7654.0193-.3086-.8195-.4606-1.9005-.7724-1.8249-.83-.246.6669 2.2976-.2142 1.8404-.6638-3.1926-1.1977.961-2.3316-1.447 11.184-5.6169 22.6223-9.7306 34.8826-11.3606-.4205 1.4433.152 1.081.4063 2.5843-.5677-.9802-.9882.4631-.9371.6743 3.1695-.5446 7.6358-.7328 12.5769-3.0482.3055 1.7145.7245.7187 1.0843 1.7493-3.7435 1.3545-6.4956 1.3507-8.3217 3.8054 3.0623.3757 5.4129-3.5475 8.3106-.6727.4685-.3371-.8268-1.1411.0559-1.1314 1.652 2.7296 5.4066-1.7575 8.357.8809-.6685-1.8501.9867-.0155.4749-2.1272 1.5543.9647 1.7126.2557 2.6977.6876-.8284-.6935.1103-1.8153.4189-.9958 3.1135.5868 10.7635-4.1736 13.3011-2.3295-.144-3.3186 1.296.8039 1.254-2.0923.36 1.0306.048 1.1062.097 1.7648.83.246-.046-1.5537.525-1.4685 2.12 2.3925 5.725-3.6231 7.639-1.6278-.099-1.3174 1.095-1.3833 1.455-.3527-.353-2.8207.107-.9202.676-.3875-.255-1.0558-.305-1.7145.111-1.8152.667 2.2976.519-.126.676-.3875.518.3215.202 1.7396.773 1.8249-.717-2.9563 1.415-3.6965 3.172-1.4397.475-2.1272 1.924-.6898 2.861-1.364 0 0-.36-1.0306-.256-1.0558 1.095-1.3833 2.752.0037 3.897-.721-.053.2364-.261.2868-.158.7091 1.508-.589 1.255-2.5399 2.806-.6802-.82-2.9311 1.086 1.3019.213-1.3929 4.463.7068 8.889-2.8252 12.052-1.5797.106-.4727.055-.6838.317-1.4181 1.396 1.6738 5.095-1.6819 7.84.1119.213-1.393 2.394-1.4745 3.433-1.7264 1.456-.3527 3.015-.7305 4.36.7321-.826-1.5886-.306-1.7145-.25-2.84594.205.84466.513 1.66414.774 1.37734-1.132-2.85548 1.299-.0911.221-3.63049.208-.05039.364-.31193.676-.38751.31.37195.773 1.8249 1.291 2.14646-.67-1.40257.366-.75944-.2-2.18721.622.29637 1.3-.53865 1.922-.24228-.154-.6335-.462-1.45296-.254-1.50334.31.37194.62.74389.93 1.11583-.2-2.18721 1.769-.87577 2.552-2.18351.565 1.87529 1.086 1.30181 1.705 2.49322-.628 1.49371-1.298.09113-1.665.85058.514 1.66412 1.195-.06594 1.705 2.49322-.985-.43196-.679 1.28253-1.765-.01926.153.63349.256 1.05579.254 1.50329 1.239 1.9353 1.401.3312 2.277 2.131.047 1.5537-.683 2.1775-.895 3.5705.254 1.5033.678-.835.932.6683-.417.5483-1.041.6994-1.815-.678-.16 1.1566 1.134 2.4081.56 3.2179-.309-.8195-.461-1.9005-.772-1.8249.665 2.7451-.308-1.267-.571-.0852.256 1.0558.463 1.0054.772 1.8249-.419.9958-.774-1.3774-1.241-1.4878.619 1.1914.048 1.1062.253 1.9509-1.508.589-2.384-1.2107-2.655 1.7611-.363-.1355-.769-2.7199-1.236-2.8303.36 1.0306.715 3.4038 1.131 3.3031 2.285-.1067 3.595-3.3305 3.958-3.1949.103-.0252 1.077 3.5394.724.7187.619 1.1914 1.901 5.5755.51 2.5591.154.6335.411 1.2418.616 2.0865-.624.1511-.782.8602-.734 1.9664l.155.186c.573-.3623 1.668-1.7456 1.558.0696-.208.0504-.469.3371-.782.8602 1.137 1.513 2.064 3.5239 2.835 5.7963.104-.0252.312-.0756.416-.1008-.103-.4223-.205-.8446-.307-1.2669.574-.8099.204.8446.515 1.2166l.208-.0504c-.407-2.5844.156-.2616.519-.126.779.0348.787-2.2028 1.724-2.877.309.8195.203 1.2922.408 2.1368.051.2112-.002.4476-.002.4476.728-.1764 1.352-.3275 1.871-.4535-.676.3875-1.457.8002-2.133 1.1877.309.8195.565 1.8753.152 1.081-.102-.4223-.205-.8446-.256-1.0558-.208.0504-.312.0756-.468.3371-.053.2364-.106.4727-.055.6839.621.7439.413.7943.469-.3371.665 2.7451-.373 2.5495-.067 4.264.886-.8854.582-3.0474 1.359-2.5651-.205-.8446-.565-1.8753-.408-2.1368.205.8446.515 1.2166.774 1.3774-.102-.4224-.256-1.0558-.152-1.081.822 2.4835-.89 2.2279.243 4.6359.522-.5734.79-3.0978 1.67-2.1931-.531 3.2586-1.319 5.9089-2.416 7.7397 2.018 1.9701 4.087 4.1514 4.487 8.5259-1.463 2.5902-4.898 4.7641-7.554 6.9728 1.351-.3275 2.599-.6298 2.855.4261-2.287.5542-4.678 1.1336-4.166 3.2452 2.65-.4186 3.329-1.7012 5.403-.8624-1.145.7246-2.912 1.1529-2.606 2.8674 2.544.054 4.162-2.3503 5.821-1.4108-1.926 1.1374-4.006 2.0887-4.583 3.7936.623-.1512 1.298-.0912 1.295.8039-2.864 2.2591-2.974 4.0743-4.225 5.2717 3.328-1.2537 7.385-3.1312 9.034.4934 2.026-.2674 3.275-1.0173 3.901-2.0634.199 2.6347 1.389 3.9113 2.788 4.69-8.616 13.4901-23.298 24.6496-45.754 31.4336-26.251 7.927-53.6901 14.13-71.3237 8.12-.6284 1.494-2.8111 2.023-4.575 1.556-1.0858-1.302-.2543-1.503-.87-3.59-4.6183-.893-10.105-5.823-13.8052-2.02-2.6465-.476-2.3284-2.342-3.152-4.378-2.0788.504-4.2616 1.033-6.3916 1.326-1.5992-2.966-4.6277 1.792-6.3309-1.149 1.1866 2.172-3.4364 2.622-5.0002 4.342-.2528-1.951.2173-2.735-.9724-4.012.1087-1.368 2.7056-1.55 2.2962-3.239-3.3789 1.042-1.7464-5.3897-5.282-4.086-1.8198.665-2.1364 2.083-2.816 3.366-.2015-1.74.5309-3.259 1.5223-4.6171-2.1253-1.0499-3.782-2.4369-4.8663-4.1862-.1551-.186-.2063-.3972-.2574-.6083-.363-.1356-.83-.246-1.2458-.1453-1.2441-.5927-1.7606-1.3618-2.1732-2.1561.1039-.0252.1039-.0252 0 0zm147.5892-77.5772c-.205-.8447-.464-1.0055-.773-1.8249.104-.0252.208-.0504.261-.2868.515 1.2166 1.868.4416.943-2.4643-.112 2.2628-2.288 1.0017-3.177 2.7822.883.0096 1.657 1.387 2.746 1.7938zm-6.054 8.6214c1.247-.3023 3.372.7476 3.385-2.8326-1.617 1.9568-4.215 2.5866-6.969 3.0304-.468.3371-.937.6743-1.405 1.0114.674.06 1.402-.1163 2.077-.0563 1.092-.4883 1.976-.9262 2.912-1.1529zm-119.9569 16.7768c-.9323-.6683-1.556-.5171-2.3379.3431.8284.6935 1.8166.2304 2.3379-.3431zm120.2249-19.3011c.107-.9203 1.144-.2771 1.248-.3023-.05-.6587-.256-1.0559-.514-1.6642-.104.0252-.053.2364-.156.2616.051.2112.049.6587-.055.6839s-.155-.186-.259-.1608c-.157.2615-.26.2867-.417.5483-.053.2363-.002.4475.153.6335zm.429-3.681c-.312.0756-.107.9203.046 1.5538l.208-.0504c-.102-.4223-.205-.8447-.254-1.5034zm-3.278 1.9124c.882.0096 1.765.0192 2.701-.2075-.052-.2112-.103-.4223-.258-.6083.155.186.31.372.361.5831.104-.0252.208-.0504.312-.0756-1.391-3.0163-2.131.7402-3.529-.486.155.186.361.5831.413.7943zm-.83-.246-.051-.2112c-.104.0252-.053.2364-.053.2364.104-.0252.104-.0252.104-.0252zm-3.371-1.1951c.208-.0504.312-.0756.519-.126-.155-.186-.31-.3719-.465-.5579.051.2112-.001.4475-.054.6839zm.574-.8099c.515 1.2166 1.089.4068 1.765.0193-.772-1.8249-1.295-.8039-1.765-.0193zm2.24-2.1079c1.091-.0408 2.13-.2927 2.91-.7054-.37 2.102-2.494.6046-2.862 1.8116 1.81 2.0205 4.468-.6357 5.511-1.7827-.827-1.141-1.766-.0192-1.716.6395-.416.1007-.725-.7187-1.035-1.0907-.935.2267-1.924.6898-2.808 1.1277zm-136.5231 76.0132c-.2078.0504-.3118.0755-.5197.1259 0 0 .0512.2112.1024.4224.0528-.2364.2095-.4979.4173-.5483zm13.2123-35.8431c.4158-.1008.6764-.3875 1.0922-.4883-.4126-.7942-1.0378-.1956-1.0922.4883zm.075-6.5016c-1.1898-1.2766-.7213-1.6138-.2-2.1872-.9275-2.0109-.9914 1.3581-.7371 2.8614.3646-.3119.6764-.3875.9371-.6742zm-1.4826-6.5713c.0016-.4475-.3583-1.4782-.0976-1.7649-.5693-.5327.0417 2.8963-.8395 2.4391.3615.5831.6174 1.639.9788 2.2221.4173-.5483-.4638-1.0055-.6158-2.0865 1.3449 1.4626 1.6135-1.0617 3.3246-.3586-.4606-1.9005-2.2324-.1296-2.7505-.4512zm4.8467-4.9753c-.2078.0503-.2606.2867-.4685.3371.2543 1.5033.6189 1.1914.926 2.4584.0543-.6839-.2016-1.7397-.4575-2.7955zm.9228 3.3534c-.6204-.7439-.2094.4979-.7291.6239.1519 1.081 1.3976 1.2262.7291-.6239zm.056-1.1314c.2606-.2867-.3567-1.9257-.0961-2.2124-.8252-1.5885-.5772 1.7049.0961 2.2124zm.2606-.2867c.3118-.0756.1583-.7091.3662-.7595.0527-.2363.259.1608.3102.372.3646-.312-.5149-1.2166-.7724-1.8249-.1055.4727-.315.9706.096 2.2124zm1.8277-2.9022c-.0528.2363.0496.6586-.1583.709-.8764-1.7997-.4221 1.8909-1.3992-.7787-.1567.2616.1519 1.081.2543 1.5034.7756.9298 1.0937-.9358 1.5032.7535.3645-.312.1598-1.1566-.2-2.1872zm1.0906-.0408c-.0559 1.1314-.6221-.2964-.6268 1.0462.8779 1.3522.8299.246 1.4552-.3527-.3087-.8195-.5709-.0852-.8284-.6935zm1.9701.8639c.0064-1.7901 1.7607 1.3619.993-1.8056-.1614 1.6041-1.4008-.3312-.993 1.8056zm1.6694-2.1931c-.4717 1.2321.6157 2.0864 1.0347 1.0906-.3039-2.162-.7276.1764-1.0347-1.0906zm118.0675-25.93247c-.46-1.90047-.777-.48234-.778-.03482-.36-1.03063-.41-1.68931-.098-1.76489-.257-.6083-.363-.13559-.571-.08521.205.84466.513 1.66413.718 2.50878.055-.68387.984.87951.729-.62386zm.602 6.11417c.209-.4979.625-.5987.214-1.8405-.054.6839-.729.6239-1.091.0407-.059 2.0265.571.0853.877 1.7998zm5.794 6.1971c-.411-1.2418-.418.5483-.056 1.1314-1.086-1.3018-2.289 1.0017-3.902 2.0634-.104.0252-.208.0504-.312.0756.312-.0756.779.0348 1.091-.0407 0 0 .104-.0252.052-.2364.104-.0252.208-.0504.363.1356.208-.0504.52-.126.779.0348.109-1.3677 2.386.7632 1.985-3.1637zm7.333 11.1894s.104-.0252 0 0c.26.1608.363.1356.467.1104-.31-.3719-.618-1.1914-.467-.1104zm-3.334 3.0438c.208-.0504.469-.3372.83.246-.155-.186-.206-.3972-.257-.6083-.208.0503-.365.3119-.573.3623zm-4.943 32.274c-.155-.186-.518-.3216-.83-.246-.833.6491-1.77 1.3233-2.707 1.9975l.051.2112c2.285-.1067 1.305-1.8812 3.486-1.9627zm-134.6678 35.9916c.5197-.126.5708.086.726.272.0527-.237.1567-.262.2094-.498-.4142-.347-.7772-.483-1.1913-.829-.3135.523-.2639 1.181-.0591 2.026.5708.085.2094-.498.315-.971zm-11.7026-9.236c-.0512-.2111-.2575-.6083-.3087-.8195-.3118.0756-.6748-.06-1.1898-1.2766.1567-.2615.4686-.3371.5725-.3623-.2591-.1608-.4654-.5579-.7244-.7187-.1567.2616-.3646.312-.5213.5735.6716.9551 1.7063 2.0457 2.1717 2.6036z" fill="#ffdda5"/></svg>