<svg viewBox="0 0 1205.6 1192.82" xmlns="http://www.w3.org/2000/svg"><path d="m1197.67 620.61.58-3.2-1 .15c-.1-.68-.2-1.36-.29-2l-2.19-.72-1-7.12 1.89-1.31-1.18-8.14-2 .29c-1-3.87-2.41-5.09-6-5.37-1.33-3-3-3.48-5-5.51l-1 .14q-1.17-4.5-2.33-9l-1 .15-.3-2-1 .15c-.49-1-1-1.94-1.46-2.9l-2 .29c-1-2.28-2-4.55-3.07-6.83l-2.18-.72-1.6-3.93-2.18-.72c-.15-1-.3-2-.44-3.05l-3.35-1.6-.29-2-5.68-3.34-.29-2-1 .15c-3-5.31.38-11-1-14.39l-1 .14c-.2-1.35-.39-2.71-.59-4.07l-1 .15-.3-2-1 .14q-1.3-5.52-2.63-11l1-.15c-.1-.68-.19-1.36-.29-2 .17-.42 1.3-1.19 1.74-2.33-8-2.53-14.15-9.67-23.27-10.15-2.66-6.63-6.25-2.84-7.87-11.32-4.11-.54-4-2.46-9.59-1.74-.8-4.69-1.91-5.25-6-5.37-.1-.67-.2-1.35-.29-2l-4.51-2.47c-.62.27.47 1.72-.87 1.17l-.15-1-5.67-3.34-1.76-4.94-3.34-1.59c-.1-.68-.2-1.36-.29-2l-7.86-4.06-.29-2c-5.22-.63-6.4-4.61-9.46-8l-2.18-.73-.3-2-2.18-.72-1.75-4.94-3.34-1.6-.3-2-4.51-2.47c-.09-.68-.19-1.36-.29-2l-5.67-3.34-.15-1-3 .44-.15-1-1 .14-1.45-2.9-1 .14-.3-2-4.5-2.47c-.2-1.35-.4-2.71-.59-4.07l-1 .15c-.52-1.67.7-1.89.73-2.18l-1.62-11.19-1.17-8.14 1-.15.57-3.2 2.76-2.47c-.15-1-.29-2-.44-3.05l1.89-1.31c0-2.43 0-4.85 0-7.27l1-.15c-.15-1-.3-2-.44-3.05l1-.15-.44-3.05 1-.14q-.66-8.22-1.33-16.43l1-.15c-.1-.67-.2-1.35-.29-2l1.88-1.31c-.14-1-.29-2-.44-3.05.93-3.62 1.54-3.95.72-9.45 1.94-.91.89 0 1.89-1.31 1.57-3.49-4.4-3.75-3.51-9.88l1-.15c-.15-1-.29-2-.44-3l1-.15c-.25-1.69-.49-3.39-.74-5.09l1-.14c-.1-.68-.19-1.36-.29-2l1-.14c-.25-1.7-.49-3.4-.74-5.09l1-.15-.15-1a1.73 1.73 0 0 1 -1.31-1.89l1-.15-.15-1-1 .15c-.9-2.85.2-7.5-.16-8.29l-2.18-.72-2.34-9-2.18-.72c-.2-1.36-.39-2.72-.59-4.07l-1 .14c-2.22-4.57-.85-9.1-4.81-11.76l-.14-1c-1.09.44-1.73 2.15-3.93 1.6-.43-.63-.87-1.26-1.31-1.88l-5.08.73-.15-1-4.07.59-1.31-1.89-2 .29c-.43-.63-.87-1.26-1.31-1.88l-5.74-4.04c-.1-.68-.2-1.36-.29-2l-2.33-1.74c-1 .46-2.84 1.55-5.09.74l-1.29-1.93-3.2-.58-.29-2-6.12-6.39-10.61-1.59c-.44-.62-.87-1.25-1.31-1.88l-2 .29-4.81-4.5-4.21-.43-1.31-1.89-2 .29-6-5.37-2 .3-1.31-1.89-2 .29-3.83-3.66-2 .3-1.31-1.89-2 .29-2.51-2.76-2 .3-1.32-1.89-2 .29-2.47-2.76-2 .3-3.64-3.63-3.2-.58-.29-2c-3.66-.47-6.34-3.05-9-4.93l-1.31-1.89-2 .29-2.47-2.76-2 .3-4.81-4.5-3.34-1.6-.15-1-2 .3-3.64-3.63-2 .29-1.54-1.9-4.36-1.44c-.1-.68-.2-1.36-.29-2a8.17 8.17 0 0 1 -4.35-1.56c-.05-.34-.1-.67-.14-1l-3.2-.58-1.31-1.89-2 .29q-1.82-1.82-3.64-3.62l-2 .29-4.81-4.5-2 .29-2.47-2.76-2 .3-2.47-2.76-2 .29-3.64-3.63-2 .3-2.48-2.76-2 .29-2.48-2.76-2 .3-4.8-4.5-2 .29-2.47-2.76-2 .29-2.47-2.76-2 .3-2.47-2.76-2 .29-1.31-1.89-2 .3-1.84-1.89-3.35-1.59-.15-1-2 .29-4.8-4.5-2 .3-2.47-2.76-2 .29-1.31-1.89-3.2-.58-.14-1-2 .29-1.44-1.85-3.2-.57-2.47-2.76-2 .29-2.47-2.81-2 .3-2.47-2.76-2 .29-2.47-2.76-2 .29-3.63-3.62-2 .29-2.47-2.76-2 .29-4.8-4.5-2 .3-2.47-2.76-2 .29-1.31-1.89-3.2-.57-.14-1-2 .29-1.67-1.87-3.2-.57-3.64-3.63-2 .29-1.31-1.89-3.2-.57-.15-1-2 .29-2.48-2.76-2 .3-1.39-1.95-2 .29-2.52-2.8-3.2-.57-1.28-1.85-2 .29-1.38-1.87-2 .3-2.48-2.76-2 .29-1.31-1.89-2 .3-2.47-2.76-3.2-.58-1.41-1.9-2 .3-1.35-1.9-2 .29-2.47-2.76-3.2-.57-1.31-1.89-2 .29-1.42-1.89-2 .3-2.48-2.76-3.2-.58-1.32-1.89-2 .3-1.31-1.89-2 .29-2.47-2.76-3.2-.57-1.31-1.89-2 .29-1.31-1.89-2 .3-2.48-2.76-2 .29-1.31-1.89-2 .3-2.61-2.76-3.2-.58-1.31-1.89-2 .3-1.31-1.89-2 .29-2.48-2.76-2 .3-2.48-2.76-2 .29-1.31-1.89-2 .3-2.47-2.76-2 .29-1.31-1.89-2 .3-2.48-2.76-2 .29-1.65-1.88-2 .29-2.47-2.76-6.42-1.13-1.31-1.89-2 .29-1.32-1.89-2 .3-1.31-1.89-6.4-1.16-1.31-1.88-2 .29-1.31-1.89-2 .29c-.44-.62-.87-1.25-1.31-1.88l-2 .29-1.31-1.89-6.53-1.17-1.34-1.92-2 .29-1.31-1.88-2 .29-.15-1-3 .44-1.31-1.89-2 .3-1.31-1.89-6.58-1.15-1.31-1.88-4.21-.43-.15-1-2 .29-.15-1-2 .3-.14-1-2.04.21-2.33-1.74-2 .3-1.31-1.89-9.68-1.67-.14-1-4.22-.43-.15-1-8.17 1.09c0-.33-.09-.67-.14-1l-17.59.46-.15-1-5.08.73-.15-1-5.09.73-.14-1-3.03.42-.14-1-2 .3-.14-1-3.06.44-1.31-1.89-3.05.44-.15-1-2 .29-.15-1c-1.38.44.45.55-.87 1.17l-1 .14-.14-1-4.07.59-.15-1-5.09.74-.14-1c-3.42-.46-7.22 2.36-8.86 3.36-1.46 0 .28-.71-1.17-.88l-4.74 3.62.15 1-3.92 1.6c-.24.73-.48 1.46-.73 2.18l-3 .44.15 1-2 .29.15 1c-.65.15-2.16-.66-4.21-.43l-.3-2c-3 .11-2.83-.79-6.1.88l.14 1-5.08.74c-.24.72-.48 1.45-.73 2.18l-3.05.44.15 1c-2.95 1.32-5.71-.28-7.42-1l-.14-1-5.09.73c-.27 0-.53-1.54-2.18-.72l-.72 2.18-4.94 1.75c-.25.73-.49 1.46-.73 2.18l-4.94 1.76.15 1-2.18-.72.14 1-1 .14-1.31-1.89h-7.27l.14 1-2 .3q-1.23 2.25-2.47 4.5-2.9 1.47-5.81 2.92l-1.59 3.35c-4.1 3.6-13.28 3.33-16.56 7.58-5.77 2.48-4 7.3-5.64 12.3.1.68.19 1.36.29 2l-2.75 2.51.3 2-1 .14c.15 1 .29 2 .44 3.06l-1 .14c-.14 1.41-.28 2.81-.43 4.22l-1 .15c.09.67.19 1.35.29 2l-1 .15c.15 1 .29 2 .44 3l-3.63 3.64.3 2-3.71 3.79c.14 1 .29 2 .44 3l-1.89 1.31c.1.68.19 1.36.29 2l-1 .15-.57 3.19-2 .3c-.35 3.23-2 5.13-3 7.71.1.67.2 1.35.29 2l-1 .15q-1.24 2.25-2.47 4.51l-7 2-.15-1-3.2-.57-1.31-1.89c-3.81-1.13-5.41 1.27-7.27 0-3.43-1.71-.65-1.23-2.62-3.78l-2.18-.72c-.1-.68-.2-1.36-.29-2l-1 .15-.3-2-1 .14c-1.5-1.22-.69-1.61-3.35-1.59l.15 1-1 .14-1.31-1.89-2 .3c.53 1.31 1.07 2.61 1.6 3.92l-1.89 1.31.3 2-1.89 1.31a14.87 14.87 0 0 0 -1.88 8.58s-3.9.61-1.89 1.31l1-.15.29 2c-1.14-.63-1.18-1.1-2.33-1.74l-.57 3.2-3 1.63-1.16-.87c-.36 3.06-.53.3.44 3l-2.91 1.46-1.37-1.84-4.07.59c-.06 2.28-.71 2.08-.72 2.18.24 1.69.49 3.39.73 5.09l-1 .14c.87 3.38 1.29 3.67 3.79 4.65l.15 1a5.66 5.66 0 0 0 1.74-2.33 10.82 10.82 0 0 1 4.21.43c.15 1 .3 2 .44 3l-1 .15c.05.34.09.68.14 1l-5.23-.28-.58 3.2-5.23-.28a4.09 4.09 0 0 1 -1.74 2.32c.48 1 1 1.94 1.46 2.91l1-.15-.57 3.2 1-.15.15 1-1.16-.87-2.76 2.48c-2.06-2.58-5.76-4-9-4.93-.24.72-.49 1.45-.73 2.18 1.34.77 1.47 2.17 2.48 2.76l2-.3 2.33 1.74c1.39 1.46.37 2.32 2.62 3.78-.71 3.17.33 1.11-2.9 1.46l-.58 3.2-3 .44c1.36 4.39 1.3 5 1.32 9.15l-2 .29-.57 3.2-1 .15.29 2-1 .14 1.45 2.91-1 .14c.09.68.19 1.36.29 2l-1 .15c.25 1.69.49 3.39.73 5.08l-1 .15c-.63 2.35-.44 4.09 0 7.27l-3.05.44c1.22 2.81 2.05 2.76 4.65 3.48-.41 3.54-2.51 5.15-4.06 7.85l-1 .15c.15 1 .3 2 .44 3l-1 .15c.05.34.09.68.14 1l-6.6-.91.29 2-2 .29c.54 1.31 1.07 2.62 1.61 3.92l1-.14c.24 1.69.49 3.39.73 5.08l-1 .15 1.31 1.89-2 .29.29 2-4.07.58.15 1 1-.15c-.92 3.26 1.74 3.31 3.06 6.83l2-.29.3 2 2-.29a15.35 15.35 0 0 0 -.14 6.25l-2 .29 1.46 2.91a1.5 1.5 0 0 0 -.73 2.18l2.18.72.3 2-5.09.73c1 1-.11.18 1.17.87 0 .34.09.68.14 1 2 1 5.06-.34 6.11-.88q2.68 4.29 5.39 8.57c-3.22-1.31-4-3.16-8.73-2.9-.14 1.41-.29 2.82-.43 4.22l-3 .44 1.31 1.89-1 .15-.58 3.19a4 4 0 0 1 -2.32-1.74l-1 .15c.19 1.36.39 2.71.58 4.07l-3.34-1.6-.15-1-2 .29-1.31-1.89-1.89 1.31-1.46-2.9-9.74-2.75c-.1-.68-.2-1.36-.29-2-1.95.91-.9 0-1.89 1.31l-1 .15.15 1 1-.15c0 2.16.06.95-.72 2.18l.15 1-3.06.44c-.29 2.73-.62 3.07-2.46 4.51-1.63 1.81-3.27.32-7.27 0-.7 2-1.22 1.79-1.45 4.36l-2 .3 1.46 2.9a7 7 0 0 0 -2.62 3.49l-6.1.88-.29-2c-2.84 1.58-1.16 0-.58 3.2l-4.07.58c.2 1.36.39 2.72.59 4.07l-1 .15c.15 1 .29 2 .44 3.05-.11 1.45-1.22-.24-.87 1.17l1-.15c.09.68.19 1.36.29 2l2.18.73.3 9.3-8.71 4.37-.15-1c-4.92-.35-7.36 1-9.3.3l-1 .15.15 1-5.09.74.15 1-2.18-.72.14 1-7 2 .15 1-2 .29-.72 2.18-2 .3.15 1c-3.14 1.7-13.33-1.47-15.85-1.87-5.66-.9-25.56 5.31-28 7.16-.24.72-.49 1.45-.73 2.18l-1 .14-1 .15c0 .34.1.68.14 1l-1 .15c1 1-.12.17 1.16.87l.15 1 1.89-1.31a7.88 7.88 0 0 0 2.47 2.76c-.34 3.77-2.15 5.23-5.22 7l.14 1-3.2-.57c-.78-3-.49-2.78-2.62-3.78s-4.08 1-7 2l.29 2-8 2.19c-.66 5.38-3.52 3.66-5.22 7-.93 1.81.35 2.35-1.45 4.37 1 2.37 1.39 2.08 2.62 3.77l-3.35-1.59-.57 3.2c-2.42 1.09-1.56.77-2.76 2.47l-1 .15.29 2c-.75 1.24-4.9 3.44-6.68 4.08l.3 2-2 .29c-.66 5.41-3.09 3.13-4.35 5.82.15 1 .29 2 .44 3.05l-2.76 2.48c.1.68.2 1.35.29 2l-1.88 1.31c-.2 1.07-.39 2.14-.58 3.2l-1 .15.29 2-1.88 1.31c-.39 2.14-.77 4.27-1.16 6.4l-3.09 3 .3 2-1.89 1.31c.1.68.19 1.36.29 2l-2.76 2.47.3 2-1.89 1.31c.1.67.19 1.35.29 2l-5.37 6 .3 2-1.89 1.31.29 2-2.76 2.47.3 2-1 .14c.14 1 .29 2 .44 3.06l-1.95 1.53c.1.68.2 1.35.29 2l-1.88 1.31.29 2-1 .14.29 2-1 .15q0 3.63 0 7.26l-.99.27.29 2-1 .15c.29 2 .58 4.07.88 6.11l-1 .14c.24 1.7.49 3.39.73 5.09l-1 .15c.25 1.69.49 3.39.74 5.08l-1 .15c.25 1.69.49 3.39.73 5.09l-1 .14.29 2-1 .14c.25 1.7.49 3.4.74 5.09l-1 .15c.29 2 .59 4.07.88 6.1l-1 .15c.25 1.69.49 3.39.74 5.08-.06.42-1.28.43-.73 2.19l1-.15c.58 2.32-1.41 5 .16 8.29l1-.15c.2 1.35.39 2.71.59 4.07l1-.15c.91 2 0 7.27 0 7.27l1-.15c.96 2.34 1.96 4.61 2.96 6.89l3.19.58-.57 3.2-1 .14 1.75 4.94-2.9 1.46c1 2.53 1.46 2.77 3.63 3.63-.3 2.5 0 2-1.59 3.35a8.12 8.12 0 0 0 2.63 3.78l1-.15.29 2 2.18.72.3 2 1-.15.15 1-5.09.73c1.32 1 .06.44 2.19.73.14 1 .29 2 .44 3l2.18.72c.66.92 1.55 4.64.88 6.11l-1 .14c1.32 1 0 .44 2.18.73l4.37 8.71 3.35 1.6c.1.68.19 1.35.29 2l5.68 3.34.29 2 2.18.73.15 1 2-.29c.81 2 3.57 5.69 5.1 6.54l2-.3 2.33 1.74 1.46 2.91 3.2.58 8.29 7.11 2-.3 1.47 2.1 2-.29 2.48 2.76 2-.3 1.31 1.89 2-.29 2.47 2.76 2.18.72.3 2 3.2.57 3.64 3.63 4.21.43 1.31 1.89 2-.29 1.31 1.89 2-.3.15 1c2 1.19 2.78 2 5.53 2.32.9 1.94 0 .89 1.31 1.89a11 11 0 0 1 -.43 4.21c-3.89.33-12.32 3.24-18.32 2.64l-.14-1-1 .14.15 1-2.19-.72.15 1-1 .15c0-.34-.09-.68-.14-1l-1 .15.15 1-12.5-.28-.15-1-3.05.44-.15-1-1.78 1.36-10.32.45c.63 2 1.27 4 1.9 6l1-.15c1.74 3.53-1.57 10.27-2.31 12.79 5.8 1.69 10.87 5.16 13.1 11.62 4.21.48 5 3.21 8 5.07l.29 2 3.05-.44.15 1 2-.29c.49 1 1 1.94 1.46 2.91l3.35 1.62c.09.68.19 1.36.29 2l1-.15c.19 1.36.39 2.71.58 4.07l1-.15.3 2 3.34 1.59c.15 1 .29 2 .44 3.05l1-.14c.15 1 .29 2 .44 3l1-.15c1.72 2.42 2.79 5 5.09 6.54-.32 2.12.27.85-.72 2.18 0 .34.1.68.14 1l-3.05.44c.38 3.67 0 7 1.18 8.14 1 6.11-.06 6.52-5.08 8 1.41 1.54.82 1.32 3.34 1.59a12.68 12.68 0 0 0 4.08 6.68l2.19.73c.09.67.19 1.35.29 2l2.18.72c.15 1 .29 2 .44 3.06l3.35 1.59c.09.68.19 1.36.29 2l1-.15c.19 1.35.39 2.71.58 4.07l2.18.72.3 2 1-.15.29 2 1-.14 2.19 8c0 .27-1.35.51-.73 2.18l1-.15c.15 1 .29 2 .44 3.06l1-.15c-.24.73-.48 1.45-.73 2.18l1-.15.29 2 4.37 1.45c1.47 2.51-3.69 4.64.15 8.28.25 1.7.49 3.39.74 5.09l1-.15c3 3 4.93.94 7 5.23l1-.15-3 7.71-2 .29c.1.68.19 1.36.29 2-5.12 1.41-4.74 3.68-10.75 4.66l6 5.37 4.22.43 2.47 2.76 2-.29.15 1 3.35 1.59c.19 1.36.39 2.71.58 4.07 2.67.16 4.88.69 6.55 2.17l1-.15.14 1-1 .15c.15 1 .3 2 .44 3l-1 .15c-2.52 4.36-5.34.86-6.24 7.13l-2 .29c.25 1.7.49 3.39.73 5.09l2.19.72c-.2 1.07-.39 2.14-.58 3.2l3.2.58c-.15 1.4-.29 2.81-.43 4.21 1.38.82 2.49 3 3.64 3.63l2-.29.15 1 3.34 1.59 1.31 1.89c1.3.64 4.46.19 5.38 1.3.2 1.36.4 2.71.59 4.07l1-.15 1.6 3.93 9.17 5.94c.14 1 .29 2 .44 3.06l2.18.72c.1.68.2 1.36.29 2l2.18.72 1.32 1.89 2-.3c1.94 1.09 3.21 4.18 4.08 6.69l3.05-.44c.82 3 3.18 6.5 1.32 9.15-.32 2.12.27.86-.72 2.18l.14 1-3 .44c-.19 1.07-.38 2.13-.58 3.2l-1 .15c.09.67.19 1.35.29 2l-1 .15c.45 1.38.59-.47 1.17.87l-1.6 3.34a43.67 43.67 0 0 1 -14.53 0l-.58 3.2c9.8 1.17 12.58 10.49 24.14 9 2 4.76 3.06 2.49 6.84 4.21l1.31 1.89 2-.3 2.33 1.74 2-.29 3.78 4.65 2-.3 1.51 2.48 4.21.43 1.32 1.89 2-.29 2.47 2.76 2-.3.15 1 6.39 1.15 3.64 3.63 2-.29 3.64 3.63 2-.29 4.8 4.5 2-.3 1.31 1.89 5.23.28 1.31 1.89 2-.29 2.47 2.76 2-.3.14 1 3.35 1.6c2.23 2.62.11 4.9.88 6.1l4.36 1.45 1.46 2.9 2-.29 2.34 9a2.73 2.73 0 0 0 -.57 3.2l1-.15c.2 1.36.39 2.71.59 4.07-4.9.59-8.42.36-10.76-2.6l-1 .14c1 3.91 2.29 4.29 4.08 6.69l5.09-.74c.1.68.19 1.36.29 2 7.49.64 7.55 6.71 14.55 7.25.09.67.19 1.35.29 2 3.76-.17 4.45.17 5.67 3.34l4.22.43c1.89 4.42 2.78 2.43 5.82 4.35 1.46.92.4 2.47 1.6 3.92l3.35 1.6.15 1 2-.3 1.31 1.89 2-.29c.05.34.09.67.14 1l4.51 2.47.3 2 4.51 2.47 1.89 6c1 1.13 4.07.63 5.38 1.3l3.5 2.61c1.18 1.4.05 3.17 1.6 3.92l6.25.14 1.31 1.89 2-.3.14 1 2-.29.14 1 3.2.58c2.26 5.21 5 2.86 9 4.93l4.8 4.5 4.22.43 2.77 4.8 4.22.43c.43.63.87 1.26 1.31 1.88l2-.29 2.62 3.78 4.51 2.46.15 1 2-.29 1.31 1.88 4.22.44c.44.62.87 1.25 1.31 1.88a19.31 19.31 0 0 0 7.56 2l.3 2c4.7.61 4.19 3.38 8.87 3.92 1.42 3.46 9.89 8.13 13.67 8.41 1.75 4.12 4.21 3.84 8 5.08l.15 1 5.09-.73 4.8 4.5 7.12-1 .15 1 2-.29 1.31 1.88 2-.29 1.31 1.89c3 1.42 6.4 2 9.74 2.75l.3 2 3.2.58c0 .34.09.68.14 1l2-.3 1.31 1.89 2-.29 3.64 3.63 2-.3 1.31 1.89 2-.29.15 1 3.05-.44.15 1c2.09 1.13 2.7 2 5.52 2.32l.3 2a18.8 18.8 0 0 1 10.9 3.62l1.31 1.88 2-.29 1.31 1.89 2-.29 1.32 1.88 2-.29 1.31 1.89 2-.29 1.31 1.88 2-.29 1.31 1.89 3-.44 1.31 1.89 3.2.57.15 1 5.23.28 3.64 3.63 3.2.58 1.46 2.91 5.23.28 6 5.37 2-.29 1.31 1.88 1-.14 1.31 1.89 4.22.43c.44.63.87 1.26 1.31 1.88l6.4 1.16 1.31 1.89 3.05-.44.15 1 2-.29.15 1 2-.3 3.64 3.63 6.11-.88 1.45 2.91a13.65 13.65 0 0 1 6.55 2.17c0 .34.09.68.14 1l6.4 1.15 3.64 3.63 6.1-.88.15 1 6.25.14 1.31 1.88 2-.29c0 .34.1.68.14 1l2-.3 2.47 2.76 2-.29 7.13 6.24c.15 1 .29 2 .44 3 1 1.16 6 1.31 7.56 2l1.31 1.89 2-.3 1.31 1.89 2-.29 1.31 1.89 3-.44.15 1 2-.29.14 1 2-.3.14 1a8.2 8.2 0 0 0 4.37 1.45c.14 1 .29 2 .44 3 5.69-.4 6.79 2.14 11.77 2.46 1 2.45.76 1.61 2.48 2.75l.15 1 2-.29.15 1 3.05-.44 1.31 1.88 2-.29.14 1 8.29-.16c.9 1.94 0 .9 1.31 1.89.71.46 7.65 1.08 8.43.86l-.15-1c3.8-1.22 5 .35 6.55 2.18a18.91 18.91 0 0 0 6.53-5.1c.24-.73.48-1.46.73-2.18l4.94-1.75 5.07-8 4.94-1.75c-.05-.34-.09-.67-.14-1l2-.3c.24-.72.48-1.45.73-2.18l3.19.58c0-.34-.09-.68-.14-1l3-.44.72-2.18 2-.29-.15-1c1.05-.46 2.27 1.85 4.22.43l-.15-1c2.74-2.68 1.77-1.19.43-4.21 1.27.7.14-.16 1.17.87 0 0 3.93-.72 1.88-1.31l-1 .14-.15-1c2.68.43 3.22 1 4.94-1.76l1-.14c-.15-1-.3-2-.44-3.05l1-.15-.14-1a1.77 1.77 0 0 1 -1.31-1.89l1-.14-.14-1a1.5 1.5 0 0 1 -1.31-1.89c.07-.29 1.43-.35 1.59-3.34l3.2.57-.15-1 2-.3-.15-1a8.84 8.84 0 0 1 3.78-2.63l-.3-2 2-.29c.4-4.71 3.19-6.44 3.62-10.91 3.29-1.28 3.58-2.84 6.68-4.08 0-3.64.16-4.36-1-7.12l5.68 3.33.72-2.18-1.16-.87 3.19.58-1.45-2.91 2-.29c-.1-.68-.19-1.36-.29-2l1.89-1.31q-1-3-1.9-6l-1 .14-.15-1 7.13-1-.15-1 1-.14c.05.34.09.67.14 1l4.07-.58c.15 1 .3 2 .44 3.05 7-2.69 7.11-9.52 12.63-13.25a4.1 4.1 0 0 0 2.33 1.75l.29 2 2-.29c1.14 3 2.22 3.27 3.06 6.83l3.2.57c.9 2 0 .9 1.31 1.89 1 1-.11.18 1.16.87 1-3.48-1.58-2.29 2.62-3.49a4.11 4.11 0 0 0 -2.33-1.74l-.15-1 2.18.72c-.77-3.35-2-6.28-4.22-7.69l-.15-1c1.68.75 2 1.73 3.49 2.61 1 1-.11.18 1.17.87.58-4.13.48-1.87-1.76-4.94l2-.29c-.1-.68-.2-1.36-.29-2 2.55.27 2.39.75 4.36 1.45a12.09 12.09 0 0 0 .28-5.23c1.95-.91.9 0 1.89-1.31l1-.15c-.24.73-.48 1.45-.73 2.18l1-.15.15 1 1.89-1.31.14 1 2-.3c-.09-3.08-.31-2.8 1.45-4.36l-.15-1 2.18.73c1.35-.55-.57-1.34.87-1.17l1.31 1.89 3.05-.44c-.14-1-.29-2-.44-3 2.51-.17 2.85.48 4.22.43 1.07-1-.56-.92.87-1.16l.15 1c1.28-.19 1.53-2.15 3.92-1.6l1.31 1.89 5.23.28c-.09-.68-.19-1.35-.29-2l1-.15c-.07-.61-1.17-1.76-1.61-3.92 0 0 3.94-.72 1.89-1.31l-1 .14-.14-1 1.16.87 2.76-2.48 3.2.58.15 1c.41 0 2.12-1.24 3.92-1.61.9 2 0 .9 1.31 1.89-.14-2.29.49-1.29.72-2.18l-3.64-3.63c.92-.93.83-1.39 1.75-2.33l-.15-1 4.21.43c-.76-1.05-2-1.34-2.32-1.74l-.3-2-1 .15.72-2.19c-.76-1.69-4.1-3.65-5.82-4.35 0-2.08.09-4.17.14-6.25l4.07-.59c1.2 3.41 2.38 5 6 5.37 1.16 2.83 1.58 3.22 4.66 3.49.1.67.2 1.35.29 2l2-.29-.3-2 2-.29-.44-3a6.88 6.88 0 0 1 3.49 2.61l1-.15q-.88-2.46-1.75-4.94l-3.35-1.59c-.53-1.31-1.07-2.62-1.6-3.92l-1 .14-.3-9.3-1 .15c-.63-2-1.27-4-1.9-6 .58-3.18 4.47-5.6 6.1-8.15l2-.29c.71-3.17-.32-1.11 2.91-1.46.19 1.36.39 2.71.58 4.07l1-.15 1.75 4.94-1 .15.15 1 5.09-.74c.19 1.36.39 2.72.58 4.07l3.2.58.15 1 5.23.28-.72 2.18 2-.29 2.48 2.76 2-.3 2.48 2.76 3.92-1.6.15 1c4.35-.87 3.35-1.13 5.81-2.92-1.32-3.15-2.48-3.22-3.21-7.84l2.91-1.46c-.62-2.29-.54-2.61-1.61-3.92l-1 .14c-.14-1-.29-2-.44-3l-1 .15c-.25-1.7-.49-3.39-.74-5.09l-1 .15-.15-1 2.18.72c-.9-1.94 0-.89-1.31-1.88l-.15-1 3.2.57 1.6-3.34 2.18.72c-.15-1-.3-2-.44-3.05.56.75 2.65.6 4.21.43a23.42 23.42 0 0 0 -1.6-3.92 1.65 1.65 0 0 0 .72-2.18l-1 .14-.15-1 .87-1.17c-1.94.91-.9 0-1.89 1.31l-1 .15.72-2.18-2.18-.72c-1.44-2.66-.08-5.27 0-7.27 1.94-.91.89 0 1.89-1.31-2.23-.69-5.14-1.65-6.69-3.19-.49-1-1-1.94-1.46-2.91l-1 .15-.29-2c1.94-.9.89 0 1.88-1.31l1-.14c1.2-1.81-2-.57-2.18-.73l-.15-1-1 .14c.27-.83.1-3.48.43-4.21l1-.15c.92-1.88.42-1.51 2.76-2.48 0-.33-.09-.67-.14-1 1.61-.43 1.48 1.5 2.32 1.74l3.06-.44.14 1 2-.3c0 .34.1.68.14 1l3.2.58c-.14-1-.29-2-.44-3.06l1-.14 1.31 1.89a2.62 2.62 0 0 0 -.58 3.19l1-.14c.63 2 1.27 4 1.9 6l3.2.57c.14 1 .29 2 .44 3.05l1-.14c0 .34.09.68.14 1 2.47.54 2.2-2.09 3.78-2.63 1 .31 0 1.43 3.34 1.6.71-1.27-.16-.14.87-1.17-.14-1-.29-2-.44-3l-1 .15c0-1.56 1.08-2-.59-4.07l-3.35-1.6c0-.33-.09-.67-.14-1l1-.15-.3-2 2-.3-.3-2c-2.5-.31-1.94 0-3.34-1.6-.52-.36-1.63.51-1.17-.87l2-.29-1.31-1.89 2-.29c.15-1.41.29-2.81.43-4.22l2-.29c-.9-3.65-1.42-4.22-4.81-4.5-.14-1-.29-2-.44-3.05l3.2.57c.2-1.06.39-2.13.58-3.2 3.79-.13 4.93.84 6.69 3.19l4.07-.58-1.46-2.91 1-.14c-.15-1-.29-2-.44-3.06 3.07 1.27 4.06 3.66 7.86 4.06.09.68.19 1.36.29 2l5.66-3.93.3 2 4.21.43c-.05-.34-.1-.68-.14-1l1-.14 1.17.87c1.18-.84-.57-1 .87-1.17l1.31 1.89 3.2.58c-.64 1.14-1.11 1.18-1.74 2.33 1.48.87 1.8 1.86 3.49 2.61 0 .34.1.68.14 1a8.82 8.82 0 0 0 2.76-2.48c1.86.88 0 0 .3 2l2-.3c.54 1.31 1.07 2.62 1.61 3.92l3.19.58a1.58 1.58 0 0 1 1.89-1.31l.15 1 4.22.43 1.45 2.9c3.17.68 3.25.73 6.11-.88.09.68.19 1.36.29 2l3.2.58c.46-.34-.06-1.75 1.89-1.31l1.31 1.88c2.88 1 3-.76 5.38 1.3 1.94-.9.89 0 1.89-1.31l1-.14c-1.35-2-.85-.82-.44-3l-1 .14-.15-1a7.41 7.41 0 0 1 -3.92 1.61c-.91-1.94 0-.9-1.31-1.89l-.15-1c3.38.09 5.09-.21 7.27 0l-.3-2 3.06-.44-.15-1 1-.15c-1 3-.57 2.53.73 5.09l1-.15.14 1 2.91-1.46s.34.71 2.18.73c.32-2.12-.27-.86.72-2.18 3.22-2.18 4 3.09 7.42 1 .19-1.07.38-2.14.58-3.2l3.34 1.59-.14-1c.38-.07 5.59-.59 3.92-1.6l-1 .15.58-3.2 9.59 1.73c1.8 4.53 8.32 11.12 13.1 11.61-.1-.68-.19-1.36-.29-2 1.52-.41 4.83-1.93 7.12-1l.15 1c2.78 1.74 1.41 2.74 5.67 3.33l.29 2c3.24-1 5-2 9.16-1.32l.15 1 7.12-1c.44.13 2.23 3.19 3.49 2.61l.72-2.18 4.07-.59a9.43 9.43 0 0 1 1.74-2.33q-1.45-6.54-2.92-13.08l1.89-1.31c.09-1.74.19-3.49.28-5.23l1-.15c0-1-2.62-2.63-1.75-4.94l1-.14c.27-2.56.75-2.4 1.44-4.37l2-.29c-.82-3.14-1.22-3-2.77-4.79l-1 .14c-2.77-4.44 2.81-2.35-1.75-4.94 0-3.14.17-3.35 1.3-5.38l1-.14c-.1-.68-.2-1.36-.29-2l1-.14.58-3.2c5.32-.5 4.66 1.12 7.71 3 1 1-.11.18 1.16.87l-.14-1 1-.14c.41-1.43-2-1.29-2.32-1.75l-.3-2-1 .15c-1-2.41 1.8-3.55 1.3-5.38l-1 .14-.29-2-1 .14c-.2-1.35-.39-2.71-.59-4.06l-2.18-.73c-2-2.52-3-6.59-3.65-10.9l3.92-1.6c.48-4.65 4.3-7.27 8-9.46 1.34-1.33 6.77 0 9.45.72l-.15-1 2-.3c.25-.72.49-1.45.73-2.18l1-.14q.35-4.72.71-9.45l2.76-2.48c-.1-.68-.2-1.35-.29-2l1-.15-1.32-9.16 4.5-4.8q-1.31-5.52-2.63-11l-2.18-.73.87-1.16-1.75-4.94-1 .15c-.1-.68-.19-1.36-.29-2l-1 .15c-.14-1-.29-2-.44-3l-1 .14c-.09-.68-.19-1.35-.29-2l-1 .14c-1.45-2.76-.45-7.87-.3-9.3.63-5.84-4.64-6.11-3.79-11.91l1-.15c.05-2.08.09-4.17.14-6.25l1-.15c1.46-2.9 1.48-2.81 1-7.41 3.94-1.65 3.08-3.16 4.21-6.84l1-.15c-.25-1.69-.49-3.39-.73-5.08l2.75-2.48q0-3.63 0-7.27l1-.14c-.1-.68-.19-1.36-.29-2l1-.14.57-3.2c5.39-2.49.92-1.48 2.32-5.53l1.89-1.31.43-4.22 1.89-1.31.58-3.2 1-.14c.15-1.41.29-2.81.43-4.22l2.76-2.47-.73-5.09 1.89-1.31-.3-2 1-.14c-.1-.68-.2-1.36-.29-2l1-.14c-.19-1.36-.39-2.72-.58-4.07l1-.15-.29-2 1-.15c1.65-2.91 2.56-3.61 1.88-8.58l6-1.9c.71-1.27-.16-.14.87-1.16-1.15-4.28-2.69-4.76-3.5-9.88 3.44-.37 3.72-.58 5.38 1.3 9.82-1.16 6.49-1.63 9.3-7.57l1.88-1.31-.29-2 1-.14-2.34-9c2 .58 2.88 1.18 5.38 1.3q-2.62-3.78-5.24-7.55c1.54-1.41 1.33-.83 1.59-3.35l6-1.9-.15-1c4.15-1.82 6.59 1.52 9.16-1.32 3.94-1.63 3.08-3.18 4.21-6.84l1-.15c-.24-1.69-.49-3.39-.73-5.09l1-.14c.61-1.56.58-1.84.43-4.22l2.9-1.46c2.74-12.54-.35-25.46-5.59-33.54zm-999.6 269.81-.29-2 2-.29.3 2zm622.57 205.15c-.09-.67-.19-1.35-.29-2l1-.15c.09.68.19 1.36.29 2zm10.74-11.93.15 1-1 .14c.24-.72.49-1.45.73-2.18l-1.17-.87 2-.29c-.3 2.14.29.87-.71 2.2zm119.79-105.55c.15 1 .29 2 .44 3.06l-3.05.44-.15-1c-1.27-.71-.14.16-1.16-.87a10 10 0 0 1 3.92-1.63zm5.49-26.75-.3-2 1-.14.3 2zm-940.9-410.57-1 .14-.15-1-1 .14c.1.68.2 1.36.29 2 1.92-.88.87.04 1.86-1.28zm950.64 413.32-.15-1-3.34-1.59c-1 1.3.07.43-1.89 1.31.93.92 1.4.82 2.33 1.74zm-12.35.74c.9 1.94 0 .9 1.31 1.89l.14 1 1-.15c-.98-2.29-.5-1.84-2.45-2.74zm25.87-.61 3.05-.44c-.1-.68-.19-1.36-.29-2l-3 .44zm60.34 7.91c.09.68.19 1.36.29 2l1-.15c-.89-1.9.03-.86-1.29-1.85zm-29.36 5.27c.15 1 .29 2 .44 3.06l3-.44c-1.12-2.66-.52-2.29-3.44-2.62zm-56.66 24.79c-.15-.54 0-4.3-1.46-2.91l.15 1-1 .15c.24-.73.49-1.46.73-2.18l-1 .14-.15-1 1-.15-.15-1-3.05.44 1.31 1.89c-.24.54-1.74.48-.72 2.18l2.18.73 1.46 2.9c1.27.71.14-.16 1.16.87l1-.15c-.15-1-.3-2-.44-3.05zm5.23.28c-1.94.91-.89 0-1.88 1.31l-1 .15c1 1.85 1.89 2.42 2.77 4.79l3-.44c-2.55-3.28-3.36-1.21-2.89-5.81zm-62 38 .3 2 1-.15c-.91-1.88.01-.83-1.32-1.82zm-54.29 55.6.15 1a10.77 10.77 0 0 0 3.48-4.65c-1.27-.71-.14.16-1.16-.87l-3.06.44c.49 1 1 1.93 1.46 2.9l-2 .29c.95 1.07-.17.22 1.11.92zm-3 .44c1.17 2.65.58 2.28 3.49 2.61-1.24-2.63-.67-2.25-3.56-2.58zm-11.75 19.34c-1 1-.18-.11-.87 1.17a7.53 7.53 0 0 1 2.47 2.76l3.06-.44c-1.42-1.94-2-1.55-2.77-4.8-2.01.94-.97.02-1.96 1.34z" fill-rule="evenodd"/></svg>