<svg fill="none" height="55" viewBox="0 0 106 55" width="106" xmlns="http://www.w3.org/2000/svg" xmlns:xlink="http://www.w3.org/1999/xlink"><linearGradient id="a" gradientUnits="userSpaceOnUse" x1="52.4607" x2="53.4019" y1=".281875" y2="54.2014"><stop offset="0" stop-color="#fad192"/><stop offset=".28" stop-color="#ffe0af"/><stop offset=".47" stop-color="#fbd799"/><stop offset=".71" stop-color="#f8bd6a"/><stop offset=".9992" stop-color="#f8bd6a"/></linearGradient><path d="m97.9902 2.08247c3.0998 5.7-2.6 8.70003-4.5 12.50003 8.2998-.8 9.4998 6.5 12.4998 12-.2 0-.3 0-.5 0v.5c-.7 0-1.3 0-2 0v.5c-.2 0-.3 0-.5 0 1.1 2.5-2.6 5.6-.5 7.5v1c1.2 1.9 2.6 5.1 3.5 7-.2 0-.3 0-.5 0v.5c-.7 0-1.3 0-2 0v.5c-.2 0-.3 0-.5 0 .5 7.8-4.0998 4.2-8.4998 8-22.3 1.3-46.6 3-69.5 2-.4-1.7-5.1.2-5.5-1.5-.5 0-1 0-1.5 0 0-.2 0-.3 0-.5-.5 0-1 0-1.5 0 0-.2 0-.3 0-.5-1 0-2 0-3 0-11.89998-5.9-14.79998-11.6-12.999983-27 1.000003-3.7-1.699997-13.8 1.500003-17.50003 3.8-.1 8 .6 10.99998-1 0-.2 0-.3 0-.5h2.5c0-.2 0-.3 0-.5 2-.7 6-1.3 8-2 3.5-2.399995 11.1-.9 15.5-2.499995 14.4-.2 30.9-.8 47-.5000003v.5000003h4v.499995h4.5c0 1.1 2.5.6 3.5 1z" fill="url(#a)"/><g fill="#000"><path d="m36.1074 11.5449c.12 0 .3.03.54.09.06.03.135.045.225.045s.165.015.225.045l.18.09c.27-.06.45 0 .54.18.09.21.12.435.09.675-.03.21-.03.435 0 .675l.09 1.53c.03.54.045 1.08.045 1.62s.015 1.08.045 1.62.06 1.08.09 1.62.045 1.08.045 1.62v1.575c0 .51-.03 1.02-.09 1.53-.06.72-.09 1.44-.09 2.16.03.72.045 1.44.045 2.16v1.08c0 .36-.015.72-.045 1.08v.54c0 .18-.015.36-.045.54l-.135.99c-.09.72-.135 1.455-.135 2.205 0 .72.015 1.455.045 2.205l.045 2.25v1.125.27c.06.09.15.255.27.495.09.21.18.42.27.63.09.18.165.39.225.63.03.15-.045.24-.225.27-.15.06-.27.09-.36.09h-.225v.135c.06.27-.075.435-.405.495-.12.06-.24.075-.36.045-.12 0-.24 0-.36 0h-.855c-.15 0-.3-.015-.45-.045-.12 0-.255-.015-.405-.045-.12-.06-.24-.075-.36-.045s-.24.03-.36 0c-.24-.03-.375-.165-.405-.405-.03-.15-.045-.375-.045-.675 0-.09.045-.165.135-.225l-.045-.09-.09-.18-.225-.36c-.06-.15-.135-.285-.225-.405-.06-.15-.12-.3-.18-.45-.12-.33-.225-.645-.315-.945-.06-.3-.15-.6-.27-.9-.12-.27-.24-.54-.36-.81-.09-.3-.21-.585-.36-.855-.15-.3-.27-.6-.36-.9s-.195-.6-.315-.9c-.06-.15-.12-.3-.18-.45-.06-.18-.12-.345-.18-.495s-.12-.285-.18-.405c-.03-.12-.075-.255-.135-.405-.12-.27-.24-.54-.36-.81-.09-.27-.195-.555-.315-.855l-.675-2.025c-.12-.33-.225-.66-.315-.99-.06-.36-.135-.705-.225-1.035-.12-.33-.24-.66-.36-.99-.12-.36-.24-.705-.36-1.035l-.585-1.8c-.09-.3-.18-.585-.27-.855-.09-.3-.165-.6-.225-.9l-.45-1.71c-.06-.3-.135-.585-.225-.855s-.18-.54-.27-.81l-.09-.225-.045 1.935c-.03.72-.03 1.44 0 2.16.06.72.105 1.44.135 2.16s.03 1.44 0 2.16-.03 1.44 0 2.16.09 1.44.18 2.16c.09.69.15 1.395.18 2.115.03.36.03.72 0 1.08v1.08c0 .69.045 1.365.135 2.025.09.72.135 1.44.135 2.16l-.045 1.575c0 .24-.045.465-.135.675.03.15.045.285.045.405v.405c0 .12-.075.195-.225.225-.15.06-.255.105-.315.135-.15.03-.315.015-.495-.045-.15-.03-.3-.06-.45-.09-.15 0-.255-.015-.315-.045h-.18c-.18 0-.375 0-.585 0-.18 0-.36-.03-.54-.09-.15 0-.315 0-.495 0-.15 0-.3-.03-.45-.09-.06-.06-.09-.09-.09-.09v-.09c0-.09.015-.18.045-.27s.045-.195.045-.315v-.045l.045-.27c.03-.15.045-.375.045-.675-.03-.3-.045-.585-.045-.855.03-.3.06-.6.09-.9 0-.15 0-.3 0-.45.03-.18.045-.345.045-.495l-.09-.855c-.06-.33-.09-.63-.09-.9 0-.3 0-.615 0-.945-.03-.6-.06-1.185-.09-1.755 0-.57 0-1.155 0-1.755v-3.555c0-.72 0-1.44 0-2.16.03-.72.06-1.44.09-2.16 0-.36 0-.72 0-1.08.03-.36.06-.72.09-1.08.03-.39.045-.765.045-1.125 0-.39 0-.78 0-1.17.03-.75.06-1.485.09-2.205.03-.75.06-1.5.09-2.25 0-.33-.015-.645-.045-.945 0-.3-.015-.615-.045-.945-.03-.18-.045-.36-.045-.54s0-.36 0-.54c0-.15-.015-.3-.045-.45 0-.18 0-.345 0-.495 0-.12.075-.21.225-.27s.27-.09.36-.09h.18c.06 0 .12.015.18.045.15-.03.3-.045.45-.045h.495.72c.24 0 .48.03.72.09l.855.18c.12 0 .21.075.27.225.06 0 .12.03.18.09.36.42.615.885.765 1.395.15.48.315.975.495 1.485.09.27.18.54.27.81.12.27.21.54.27.81s.12.54.18.81.135.54.225.81l.945 3.105.045.18.225.63.18.45.135.27.225.675.09.27.09.27v.09l.315.99c.06.15.105.315.135.495.06.15.12.3.18.45.18.72.405 1.38.675 1.98.12.33.21.66.27.99.09.33.165.66.225.99.06.3.135.6.225.9.09.27.165.555.225.855.24.87.51 1.665.81 2.385v-.135-.855c0-.69.015-1.365.045-2.025s.045-1.335.045-2.025c0-.33-.015-.66-.045-.99-.03-.36-.06-.705-.09-1.035-.06-.72-.06-1.44 0-2.16.06-.69.09-1.38.09-2.07.03-.72.03-1.425 0-2.115-.03-.72-.03-1.44 0-2.16.06-.72.075-1.44.045-2.16 0-.33 0-.66 0-.99 0-.36-.015-.705-.045-1.035 0-.18 0-.36 0-.54.03-.18.03-.36 0-.54-.03-.15-.06-.3-.09-.45-.03-.18-.045-.345-.045-.495 0-.03.03-.075.09-.135l-.045-.09c-.06-.06-.045-.12.045-.18s.165-.09.225-.09l.315-.045c.33-.24.675-.33 1.035-.27z"/><path d="m53.6159 11.7699c.15-.06.3-.09.45-.09.18 0 .3.06.36.18l.045.045c.09.03.15.09.18.18.09.18.135.36.135.54v.675c0 .12-.015.24-.045.36 0 .12.015.24.045.36.06.27.03.48-.09.63-.06.12-.165.21-.315.27-.12.03-.255.06-.405.09h-.18l-.225.045c-.09 0-.255.03-.495.09l-.135.045c-.15.03-.375.045-.675.045-.12.03-.24.045-.36.045s-.255 0-.405 0h-.045l-.225.045h-.135-.405-.045c-.18.06-.375.09-.585.09-.18 0-.375 0-.585 0-.27 0-.54 0-.81 0-.27-.03-.54-.06-.81-.09h-.09l-.225.09-.135.225-.27.495.045.675c.09 1.5.135 2.985.135 4.455 0 .72-.015 1.44-.045 2.16s-.045 1.44-.045 2.16v.54l.18.045c.24.06.465.09.675.09s.435.015.675.045.465.045.675.045.435.015.675.045c.15 0 .375.03.675.09h.27c.06 0 .09.015.09.045h.135l.18.045c.24 0 .39.09.45.27.03.06.03.12 0 .18v.135c.03.18.06.36.09.54.03.15.045.315.045.495v.945c0 .12-.06.225-.18.315-.12.06-.21.12-.27.18-.3.09-.57.12-.81.09l-.27-.045h-.315l-.36-.045c.09.03.09.03 0 0s-.15-.045-.18-.045c-.15 0-.285 0-.405 0s-.24-.015-.36-.045-.225-.045-.315-.045c-.06-.03-.15-.045-.27-.045-.21 0-.42 0-.63 0-.18-.03-.36-.045-.54-.045v.495l.09 2.475v.675c.03.21.045.435.045.675v-.135l.09 1.08v1.215.135l.18 1.26c.06.3.12.6.18.9.06.27.105.555.135.855v.405c.03.12.045.255.045.405l.765.135h.36l.54.045 2.7-.045h.9c.24 0 .42.015.54.045l.135.045h.09c.39 0 .585.15.585.45v.99c0 .12.015.24.045.36.03.09.045.195.045.315s-.06.225-.18.315c-.12.06-.225.12-.315.18l-.405.135c-.15.06-.3.105-.45.135-.12.03-.24.06-.36.09-.33.03-.675.03-1.035 0-.33 0-.66-.015-.99-.045l-2.295-.045c-.15 0-.285 0-.405 0-.12-.03-.255-.045-.405-.045.03 0-.015.015-.135.045-.12 0-.15 0-.09 0l-.36.045c-.45.09-.87.075-1.26-.045-.24.06-.465.06-.675 0-.18 0-.33-.06-.45-.18-.33-.06-.495-.225-.495-.495 0-.51-.015-1.02-.045-1.53-.03-.54-.06-1.065-.09-1.575l-.09-1.665c0-.15 0-.285 0-.405s-.015-.255-.045-.405l-.09-.765c-.06-.54-.12-1.08-.18-1.62-.06-.57-.12-1.14-.18-1.71s-.105-1.125-.135-1.665c0-.57 0-1.14 0-1.71 0-.72-.015-1.44-.045-2.16s-.045-1.44-.045-2.16c0-.33 0-.66 0-.99.03-.36.06-.705.09-1.035.03-.27.045-.54.045-.81s.015-.54.045-.81l-.045-.27c0-.24-.015-.48-.045-.72-.03-.27-.045-.525-.045-.765v-.675l.045-.675c0-.12 0-.225 0-.315.03-.12.045-.24.045-.36v-.81c0-.27 0-.54 0-.81s.015-.54.045-.81v-.675c0-.09 0-.18 0-.27.03-.12.045-.225.045-.315l-.045-.315c0-.06-.015-.105-.045-.135 0-.06 0-.12 0-.18l.045-.225c-.12-.09-.105-.21.045-.36.09-.09.18-.15.27-.18.09-.06.18-.12.27-.18.18-.15.405-.195.675-.135.15-.03.3-.045.45-.045.18 0 .345-.015.495-.045l.225-.045h.18c.39-.06.765-.09 1.125-.09.39 0 .78-.015 1.17-.045l1.395-.09h.675c.21 0 .42-.015.63-.045s.42-.045.63-.045h.585l.63-.045h.405z"/><path d="m60.1592 11.2749c.09 0 .195.015.315.045.15.03.21.12.18.27-.03.21-.015.42.045.63.06.18.12.375.18.585s.09.42.09.63c.03.18.075.375.135.585.03.12.045.24.045.36 0 .09.015.195.045.315l.09.675c.03.24.06.465.09.675s.075.435.135.675l.225 1.26c.06.24.09.465.09.675.03.21.075.435.135.675.12.42.21.855.27 1.305s.135.885.225 1.305l.225 1.08c.06.18.105.36.135.54s.045.36.045.54.015.36.045.54.06.36.09.54l.18.945c.06.33.12.675.18 1.035.09.33.18.66.27.99s.165.675.225 1.035c.06.33.12.66.18.99s.12.66.18.99c.09.33.15.66.18.99 0 .18.015.36.045.54s.045.375.045.585v.45c.03.15.06.3.09.45.06.15.105.315.135.495.03.15.06.3.09.45.03.18.045.36.045.54v.54l.135-.81c.09-.33.135-.645.135-.945 0-.33 0-.66 0-.99s0-.66 0-.99c0-.36.03-.705.09-1.035s.105-.645.135-.945.06-.615.09-.945l.135-.945.135-.945c.03-.15.045-.3.045-.45 0-.18.03-.345.09-.495s.09-.3.09-.45c.03-.18.06-.345.09-.495s.06-.3.09-.45c.03-.18.06-.345.09-.495.03-.18.045-.36.045-.54.03-.18.06-.345.09-.495l.405-1.845v-.135c0-.15.045-.3.135-.45.06-.06.09-.12.09-.18.03-.09.075-.165.135-.225.12-.18.285-.24.495-.18.12 0 .21.015.27.045.18.06.36.105.54.135s.36.075.54.135c.09.03.24.045.45.045.12 0 .27.03.45.09.12.06.15.15.09.27l-.09.27.045.09c.06-.03.15-.045.27-.045.06 0 .135.03.225.09.12.03.165.09.135.18-.06.15-.06.285 0 .405.06.09.105.21.135.36.03.18.045.36.045.54.03.18.075.36.135.54.06.15.09.315.09.495.03.18.06.345.09.495l.225.99.225.99.27.945c.06.15.09.3.09.45.03.12.075.255.135.405l.27.81c.12.33.195.66.225.99.06.33.12.66.18.99s.105.675.135 1.035c.06.33.12.66.18.99.06.42.12.75.18.99.06.15.09.315.09.495 0 .15.015.3.045.45v.18c.03.06.045.12.045.18v.225l.045.27.045.18.045.09.09.405.135.765c.06.24.105.48.135.72.06.21.12.42.18.63l.09.27.045.135.045.09.045-.225.045-.405.09-.315c.06-.21.09-.42.09-.63s.015-.435.045-.675.045-.48.045-.72c0-.27.015-.525.045-.765s.06-.48.09-.72c.06-.27.105-.525.135-.765s.06-.465.09-.675.045-.435.045-.675 0-.48 0-.72c0-.27.015-.525.045-.765l.135-1.53c.03-.24.06-.48.09-.72.03-.27.075-.525.135-.765l.18-1.125c.03-.15.06-.3.09-.45.03-.18.06-.345.09-.495.03-.18.06-.345.09-.495.03-.18.06-.36.09-.54l.135-.99c.06-.36.09-.72.09-1.08s.015-.72.045-1.08c0-.18 0-.36 0-.54s.015-.36.045-.54l.045-.45c0-.21.015-.36.045-.45.12-.33.21-.66.27-.99s.135-.66.225-.99c.03-.09.03-.18 0-.27 0-.09.03-.18.09-.27v-.36l.135-.945c.06-.33.09-.66.09-.99.03-.36.06-.705.09-1.035l.045-1.125c.03-.15.045-.3.045-.45.03-.18.075-.345.135-.495 0-.24.045-.45.135-.63.03-.06.12-.09.27-.09h.09l.09-.045h.135.045.09c.09 0 .225.03.405.09l.45.09c.18.03.345.045.495.045l.45.045c.06 0 .135.015.225.045.09 0 .165-.015.225-.045.18-.06.3.015.36.225v.09.135.09c0 .15.015.285.045.405s.03.255 0 .405c-.03.18-.045.36-.045.54v.54c0 .18-.015.36-.045.54v.54.81c-.03.57-.105 1.125-.225 1.665-.09.54-.195 1.08-.315 1.62-.03.09-.045.18-.045.27s-.015.18-.045.27l-.09.27-.045.135c-.03.06-.045.18-.045.36l-.045 1.215c0 .36-.045.72-.135 1.08l-.27 1.08c-.06.15-.09.315-.09.495v.495c-.03.33-.09.675-.18 1.035-.06.33-.105.66-.135.99 0 .12-.03.3-.09.54l-.045.45c-.03.15-.045.315-.045.495v.45c0 .15-.015.315-.045.495-.03.15-.045.3-.045.45v.495c0 .15-.015.3-.045.45-.03.18-.045.36-.045.54s-.015.36-.045.54l-.135.945c-.03.24-.045.495-.045.765 0 .24-.03.48-.09.72l-.225 1.08c-.06.33-.135.66-.225.99-.06.33-.105.66-.135.99 0 .15-.015.3-.045.45s-.06.3-.09.45c-.03.12-.06.24-.09.36-.03.09-.06.195-.09.315l-.135.945-.135.855.045.045c.06.15.105.3.135.45s.06.3.09.45.045.315.045.495c.03.15.045.3.045.45 0 .21-.135.345-.405.405-.09 0-.18-.03-.27-.09-.06-.03-.135-.045-.225-.045l-.585-.045c-.12 0-.225 0-.315 0-.09.03-.195.03-.315 0-.09-.03-.225-.045-.405-.045-.21 0-.36.015-.45.045s-.195.045-.315.045c-.09 0-.18 0-.27 0-.15 0-.285 0-.405 0-.12.03-.255.06-.405.09-.09.03-.18.045-.27.045s-.165.015-.225.045-.15.06-.27.09c-.09.03-.165.015-.225-.045s-.105-.135-.135-.225c0-.06-.03-.12-.09-.18-.15-.15-.24-.3-.27-.45-.03-.09-.06-.15-.09-.18 0-.06-.015-.12-.045-.18-.06-.12-.12-.24-.18-.36s-.12-.255-.18-.405-.105-.285-.135-.405c0-.12-.03-.255-.09-.405s-.12-.285-.18-.405c-.03-.12-.075-.255-.135-.405-.06-.3-.12-.585-.18-.855-.03-.3-.09-.6-.18-.9-.06-.15-.105-.3-.135-.45 0-.15-.015-.3-.045-.45s-.075-.3-.135-.45c-.03-.18-.075-.345-.135-.495-.15-.6-.27-1.2-.36-1.8-.06-.6-.165-1.2-.315-1.8-.06-.24-.12-.48-.18-.72-.06-.27-.12-.525-.18-.765l-.045.27-.27 1.62-.135.81-.135.765v.09.09l-.045.225-.045.405-.135.81-.54 3.06-.045.36-.045.18c0 .15-.015.3-.045.45 0 .15-.015.3-.045.45l-.045.675v.045.09.18l-.045.18-.045.09-.045.315-.045.18-.045.135c-.03.06-.105.18-.225.36-.09.24-.285.36-.585.36s-.6-.015-.9-.045c-.27 0-.555 0-.855 0l-.72.045h-.63c-.15 0-.255-.12-.315-.36l-.09-.45c-.06-.06-.09-.105-.09-.135l-.045-.18c0-.03-.015-.06-.045-.09-.03-.06-.015-.045.045.045-.06-.12-.12-.3-.18-.54-.06-.21-.12-.495-.18-.855l-.135-.855c0-.24-.015-.405-.045-.495l-.09-.36-.27-1.89c-.06-.33-.105-.645-.135-.945s-.06-.615-.09-.945-.06-.645-.09-.945c0-.3-.03-.615-.09-.945l-.135-.945c-.03-.15-.06-.3-.09-.45-.03-.18-.045-.345-.045-.495 0-.09-.03-.195-.09-.315-.03-.15-.06-.285-.09-.405-.03-.15-.06-.3-.09-.45-.03-.18-.075-.345-.135-.495-.06-.33-.135-.645-.225-.945-.06-.3-.135-.6-.225-.9-.06-.18-.105-.36-.135-.54 0-.18-.03-.36-.09-.54l-.27-.945c-.06-.15-.12-.3-.18-.45-.03-.18-.06-.36-.09-.54-.03-.15-.06-.3-.09-.45 0-.18-.03-.345-.09-.495s-.105-.3-.135-.45c0-.18-.015-.345-.045-.495l-.09-.945c-.03-.33-.075-.66-.135-.99-.03-.36-.075-.705-.135-1.035l-.18-1.08c-.03-.15-.06-.315-.09-.495 0-.18-.03-.345-.09-.495-.09-.33-.165-.66-.225-.99-.06-.36-.12-.705-.18-1.035s-.12-.66-.18-.99c-.06-.36-.12-.705-.18-1.035l-.18-1.08c-.03-.18-.045-.36-.045-.54s-.03-.36-.09-.54c-.03-.12.015-.21.135-.27.15-.09.3-.15.45-.18.12-.06.21-.09.27-.09l.45.045.36-.045.18-.045h.18l1.035.045z"/></g></svg>